/* XPM */
static char *_66b68e8c3e54983ddec5ca40248eb39G8RDdFBO0QmC9zi5[] = {
/* columns rows colors chars-per-pixel */
"72 72 178 2 ",
"   c None",
".  c #150E02",
"X  c #151300",
"o  c #1C1501",
"O  c #141800",
"+  c #1A1901",
"@  c #241706",
"#  c #251A04",
"$  c #2A1C08",
"%  c #311F0B",
"&  c #311E03",
"*  c #32200B",
"=  c #3A260E",
"-  c #3D290F",
";  c #392112",
":  c #3E2A10",
">  c #2E2C17",
",  c #45261C",
"<  c #513617",
"1  c #533919",
"2  c #5C3F1D",
"3  c #4F3617",
"4  c #4D2C24",
"5  c #5A332E",
"6  c #56322E",
"7  c #5B3432",
"8  c #60292E",
"9  c #6C2B37",
"0  c #66393A",
"q  c #6A3237",
"w  c #5D411D",
"e  c #755425",
"r  c #6C5E4D",
"t  c #7B635C",
"y  c #976B34",
"u  c #9C7533",
"i  c #A27339",
"p  c #A17536",
"a  c #8C334C",
"s  c #963152",
"d  c #A7375D",
"f  c #B43E68",
"g  c #C43D71",
"h  c #81454F",
"j  c #8D4D5B",
"k  c #874955",
"l  c #914F5D",
"z  c #9A5264",
"x  c #A2556A",
"c  c #9E7C7D",
"v  c #B3607C",
"b  c #C44376",
"n  c #D57862",
"m  c #FF726F",
"M  c #FB7F7F",
"N  c #00F400",
"B  c #00FE00",
"V  c #5DCD5D",
"C  c #77C968",
"Z  c #FF9400",
"A  c #FF9428",
"S  c #FF943B",
"D  c #FFED00",
"F  c #FFF500",
"G  c #FFDE38",
"H  c #FFE620",
"J  c #B48140",
"K  c #BC8643",
"L  c #BE8844",
"P  c #C38C46",
"I  c #CB9149",
"U  c #CA9645",
"Y  c #D19E46",
"T  c #D69B4D",
"R  c #D99B4F",
"E  c #D3974C",
"W  c #DC9655",
"Q  c #DB9D51",
"!  c #FF934E",
"~  c #E1935D",
"^  c #FF9752",
"/  c #CEA043",
"(  c #D9A14C",
")  c #E3A353",
"_  c #ED8A6C",
"`  c #F58F6E",
"'  c #FF9361",
"]  c #F38574",
"[  c #F6827B",
"{  c #FB817A",
"}  c #FE9477",
"|  c #FFD155",
" . c #FFD748",
".. c #FFC179",
"X. c #BD6585",
"o. c #E74A8C",
"O. c #ED4A8F",
"+. c #EE4E92",
"@. c #F04E93",
"#. c #FB509B",
"$. c #C56688",
"%. c #D56C9A",
"&. c #FF798A",
"*. c #FF6B9D",
"=. c #FF6B97",
"-. c #E6759F",
";. c #FF7493",
":. c #F97798",
">. c #F9688B",
",. c #FF56B5",
"<. c #FF5BB5",
"1. c #FF57BC",
"2. c #FF5DBC",
"3. c #FD53A3",
"4. c #FF62AB",
"5. c #FF69A8",
"6. c #E67AA7",
"7. c #F67DAE",
"8. c #FF62BB",
"9. c #FF6EB8",
"0. c #FF76BD",
"q. c #FF55C0",
"w. c #FF5EC2",
"e. c #FF61C4",
"r. c #FF6BC4",
"t. c #FF6BCF",
"y. c #FF73C3",
"u. c #FF7BC6",
"i. c #FF73CD",
"p. c #FF7CC9",
"a. c #FF7FD2",
"s. c #00ADFE",
"d. c #06A5F1",
"f. c #23A1EE",
"g. c #47A4EF",
"h. c #B7B88B",
"j. c #ADADA3",
"k. c #FF9488",
"l. c #D1B19C",
"z. c #CAB396",
"x. c #FFB386",
"c. c #FFB395",
"v. c #EA80B1",
"b. c #F781B2",
"n. c #FE83B7",
"m. c #FF8ABE",
"M. c #F880BA",
"N. c #FF95AE",
"B. c #DBADA3",
"V. c #E9A7AC",
"C. c #FFAEA0",
"Z. c #FFB4A4",
"A. c #F4A4B2",
"S. c #FDA1B6",
"D. c #8B9FE7",
"F. c #969DE4",
"G. c #A89DE3",
"H. c #B2A1EB",
"J. c #CE99DC",
"K. c #FF81C6",
"L. c #FF85CB",
"P. c #FF8DCD",
"I. c #FF8CC4",
"U. c #FF9BC3",
"Y. c #FF92CE",
"T. c #FF94C4",
"R. c #FF8DD3",
"E. c #FF8DDA",
"W. c #FF93D2",
"Q. c #FF93DB",
"!. c #FF99DB",
"~. c #FF9AD0",
"^. c #E99CDA",
"/. c #FFA4C2",
"(. c #FF9DE2",
"). c #CBD2CA",
"_. c #F1EFEE",
"`. c #E6E8E5",
/* pixels */
"                                                                                                                                                ",
"                                                                                                                                                ",
"                                                                                                                                                ",
"                                                                                                                                                ",
"                                                                                                                                                ",
"                                                                                                                                                ",
"                                                                                                                                                ",
"                                                                                                                                                ",
"                                                                                                                                                ",
"                                                                                                                                                ",
"                                                                                                                                                ",
"                                                                                                                                                ",
"                                                                                                                                                ",
"                                                                                                                                                ",
"                                                                                                                                                ",
"                                                                                                                                                ",
"                                                                                                                                                ",
"                                                                                                                                                ",
"                                                                                                                                                ",
"                                                                                                                                                ",
"                                                                                                                                                ",
"                                                                                                                                                ",
"                                                                      # o # # # # #                                                             ",
"                                                                @ o X z 6.-.:.-.-.%.% + o @                                                     ",
"                                                              5 j j h 7.!.!.H.!.!.Y.z k j k                                                     ",
"                                                          5 4 $.(.!.!.!.P.W.s.D.P.W.!.!.!.P.q                                                   ",
"                                                        4 P.Y.W.Y.Y.W.Y.P.!.s.F.Y.Y.Y.Y.Y.P.8.9 +                                               ",
"                                                    X h v.W.Q.Q.W.W.Y.Y.Y.~.J.W.R.E.E.R.Y.Y.8.n e $                                             ",
"                                                    h 6.!.W.} ' k.Y.Y.W.P.p.W.W.A.V V V.W.P.8.} u o                                             ",
"                                                  4 b.!.Y.Y.S Z ! !.P.P.0.#.7.L.B.N N h.E.P.2.` p -                                             ",
"                                                6 P.Y.Y.W.Y.Y.Y.Y.Y.r.e.@.$ # $.!.Y.Y.Y.Y.Y.2._ ( K *                                           ",
"                                                4 Y.g.F.Y.Y.Y.W.R.r.s 9 8   o $.!.E.W.W.L.8.q._ ( L *                                           ",
"                                              5 X.P.s.g.P.W.W.R.5.d ; +     o $./...U.!.u.,.&.~ ( L *                                           ",
"                                            + l (.P.d.D.Y.Y.P.9.g O         4 %.Z.F U.R.u.4.T T Q L *                                           ",
"                                            # j !.Y.W.Y.Y.Y.r.f o         : K.Q.C.D U.y.,.4.W T Q L *                                           ",
"                                          $ b 9.W.E.W.Y.Y.W.t.f +         % I.W.T.S.~.r.=.~ W E ) P *                                           ",
"                                          # +.i.S.C S.Q.P.y.b q       + 4 X.I.G.D.R.u.e.;./ R Q K e %                                           ",
"                                          # o.i.V.B z.E.P.8., +     0 0 z (.J.d.f.K.<.4.M T R ) y .                                             ",
"                                          # o.i.A.B l.E.W.Y.7 $ % ; n.!.W.W.s.G.K.,.2.] Y E E Q y @                                             ",
"                                          @ o.e.9.V.U.R.E.R.n.b.b.M.P.W.W.W.^.u.8.<._ W R R R e =                                               ",
"                                          # @.e.8.W.E.c. .| U.Q.N.^ T.Q.L.y.r.2.4.] T T T R ) 2 @                                               ",
"                                          # x 3.8.L.a.x.H G S.Q.N.A k.m.u.,.*.5.&.Y E T R R J <                                                 ",
"                                            o a w.<.,.u.E.R.P.P.R.R.A m 2.5.W Y T E R R W L *                                                   ",
"                                            . s e.<.<.2.8.2.8.2.2.2.<.{ W W T R R R R ) i *                                                     ",
"                                            j.c s 1.w.1.1.1.q.*.] [ [ ~ T T E R R ) ) i <                                                       ",
"                                              ).t b >.;.;.;.;._ / Y Y R R Q Q Q I y u 1                                                         ",
"                                                `.> u Y U U Y T R R R R E I I E p @ #                                                           ",
"                                                  _.r & = : P ) R Q ( ) J * : : *                                                               ",
"                                                            1 w 5 2 2 w 3                                                                       ",
"                                                            $ # # @ $ @                                                                         ",
"                                                                                                                                                ",
"                                                                                                                                                ",
"                                                                                                                                                ",
"                                                                                                                                                ",
"                                                                                                                                                ",
"                                                                                                                                                ",
"                                                                                                                                                ",
"                                                                                                                                                ",
"                                                                                                                                                ",
"                                                                                                                                                ",
"                                                                                                                                                ",
"                                                                                                                                                ",
"                                                                                                                                                ",
"                                                                                                                                                ",
"                                                                                                                                                ",
"                                                                                                                                                ",
"                                                                                                                                                ",
"                                                                                                                                                ",
"                                                                                                                                                ",
"                                                                                                                                                ",
"                                                                                                                                                ",
"                                                                                                                                                "
};
