/* XPM */
static char *cdbac8a1683443c9a10071837a1d4e56zUteBXNJE3pfgxId[] = {
/* columns rows colors chars-per-pixel */
"72 72 86 1 ",
"  c #007500",
". c #007600",
"X c #007700",
"o c #007900",
"O c #007A00",
"+ c #007B00",
"@ c #007C00",
"# c #007D00",
"$ c #007E00",
"% c #007F00",
"& c #008000",
"* c #008100",
"= c #008200",
"- c #008300",
"; c #008400",
": c #008500",
"> c #008600",
", c #008700",
"< c #008800",
"1 c #008900",
"2 c #008A00",
"3 c #008B00",
"4 c #008C00",
"5 c #008D00",
"6 c #008E00",
"7 c #008F00",
"8 c #009000",
"9 c #009100",
"0 c #009200",
"q c #009300",
"w c #009400",
"e c #009500",
"r c #009600",
"t c #009700",
"y c #009800",
"u c #009900",
"i c #009A00",
"p c #009B00",
"a c #009C00",
"s c #009D00",
"d c #009E00",
"f c #009F00",
"g c #059C00",
"h c #00A000",
"j c #00A100",
"k c #00A200",
"l c #00A300",
"z c #06A300",
"x c #00A500",
"c c #00A700",
"v c #0DA000",
"b c #09A700",
"n c #00A900",
"m c #00AA00",
"M c #00AB00",
"N c #00AC00",
"B c #00AD00",
"V c #00AE00",
"C c #00AF00",
"Z c #03AF00",
"A c #05AD00",
"S c #08A900",
"D c #0AAE00",
"F c #11A100",
"G c #18AD00",
"H c #00B000",
"J c #00B100",
"K c #00B300",
"L c #00B400",
"P c #00B500",
"I c #00B600",
"U c #00B700",
"Y c #02B700",
"T c #09B000",
"R c #0EB100",
"E c #0BB400",
"W c #00B800",
"Q c #00BA00",
"! c #00BB00",
"~ c #08B800",
"^ c #12B100",
"/ c #10B500",
"( c #14B600",
") c #1DB300",
"_ c #1FB500",
"` c #1BB800",
/* pixels */
"2yxs2+$$*>6yxs2$$+yLxqeCC2>els>$$**>2yxs6$$+yLxqqMKq>ell2$$$**2yxs2*++eK",
"eKl2*>2>*>6qe6*>>*eCs66lM>qLx2*>2>**6qe6*>>*eCs66lM>6Lx6>*2*>>6qe6*>2$6M",
"sKl2$eC2>Me*e6$lM*2y6**qy6yLx6*eK2$My>q6$yC2>e6**6yqyLx6$6K6*My>q6*yC>>e",
"xKy22exeyCq+22*yx22q**>>6qxKs>>eMqeCe+22*yx62q>$*>2qlLs2>qxeqKy+>2*yx626",
"xCq*q2*xKq>$*>**>eee>>q2*6xKe*e6*lKe2$**>**qye>>e6*6lKe*q6*lKe2*$*>**qye",
"ey>*e2*xKq22sy*$>ee22ex6+>ey2*e2$bKe22sy*$*ee22exe+*ey2$e6$xKe22sy>$*ee2",
"2e2>q2*lMqelLl*$>q2*2sKl>$2e22q2*sCeeyLx*$>q2*>sLx2$>e2>66*lCeqyKx*$>q6*",
"qCs6>*>qeqxKs6**>>>*$6KLx>2Cs6>$*qyelClq*$>>>*$2CWM22Cl62**qeqlKxq*$>>**",
"eKM6>$*>26yxq>2>**>2$>lCx*qLM6>$*222yxq22>**>>$>lKx26LMq>$*262yxe22>***2",
"eKx6>**>*$2q*2e2*$2e2*qe6*6Kx6>**>*$6q*>e6*$2e>>6eq*6Kxq>****$2q>>e6*$2e",
">qye*>6>*6sl>>eq2$qCy>>qe**qye*>6>*2yx2*ee2$qMy>>qe**qee>*6>*>yM6*qe2*6x",
">$>6>qy2>yCT2*esy*qCMq*>q6>$>6>qs>>eMK2>esy>qCMq**6q>+>6>6y6>eMK6*qsy>6M",
"s*+*6xC22CKM>>eMCq6eCx> >Cx*+*6xC6>MKC2*qMCe6eCM2 *MM*$*6sC6>MKC6*qMKe6e",
"e$6sqMK22KLM2$2yxMyqCM>2yMe$6yexK6*CLC2*2elMyeCA>*yxy$2selKq2CLC6$>ylMse",
">*SKqsC2>KLC2$$2yKlqMs*sLy>*lCesC6>MLC6$$>eKxqMx*eLs>*sLeyC6>CLCq$$>qCMe",
"6MMe26y>6KMye2+$2sq>ee$sL>>CMy>6y2>KMye6+$2ye>ee$eL6>MMy26s>2DCye2$$2yy>",
"eKy>*>6*qMe26q6>*6>*266sx26Ks>*>2>>Ms22q62*22*>66sx26Ks>*>6*2Ms226q>*62*",
"ee2$>***2e2$+qKe$$>*+6AMqqey2$>***>e6$+6Ky*$**$2CMqqee2*>***2e6*+6Cy$*>*",
"q>>2*>6*$>26yMLe*2>*>elq*ee>22*>6*$>22yMLs$>>*>elq*ee22>*>6*$>26eMWy*>>*",
"2*ey>2eq>*2sCCC6*yq>6eq>>q6*qe>2y6>*2yMKCq>ee>6eq2>q6$6s22e62$2eMKCq*ee2",
"$*xKe6eCl+2yyyy>2KMq>2eyq>+$lKe6yCx$>yyey2>MMq*2qee2++sLy6eMx$*yyys>*MKe",
"*2ylyq6lxq66e62$2Mxy**6q6>*>elyq6lMq66eq2*>lCe>$6q6>>>elyq6lMq66q62$*lCe",
"ye*>q6*2sKe$qq**>qee2****qye2*q6*2yKy*qq>*>6ye>***>6ee2*qq*2sLs*6q>$>qye",
"Me2>2>*2xWe $6ly2>**66*$6MCy2>>>$2sWy++2zy62**66*$2lCy6>2>*2sWs++2ls6>**",
"s6yy>$*2sCq*>yKl6$>2eq>6sCl6yy2$>2yCy*>eKx6*>2ee22sCx6es>$*2yCy>*eCx6>*2",
"2$xK>$>*2eqeMCe2*$qCs6qxCs>$sC2$>*2eeqCMy6*$qCs66sCs2$sL6$>*2eqqMMy6*$6M",
">qxl>$$***6sMs2$+$y~xqqCK6>ell2$$***2sMs2$++yLlqeMKq*elx2$$***2yMl2$$+qK",
"qKl2>*>*>*6eq6***$eKsq6MM*6Kx6**>***6ee6*>*$eKs66lC22Kx6>*>***6ee6>>>$6C",
"sKl2$qx2>xe>e6*sx>2yq*>qyqyKx6$eM2$ly>q6*yx22yq*>6s6eKx6*6M2>xy>q6*yM>>y",
"xCs2>eMqeKq+22>sM22q>$*>6qxCl>>yMqqKy$>2*yM6>q>$*>6qlKl2>qMqqCy+>2*yMq>q",
"xKq*e2*lKq>***>*>eee>>q2*6xKq*e2*lKy2$**>*>qye>>q2*2lKe*66*lKy2******6ee",
"ey>*y6*MKq26se>$*ye22eM6$*es2*e6$xLe26se*$*qe22exe$*qs6*e6$zKe22sy>$*ee2",
">q>>e2*lCeqyKx*$>e2$2sLs*$>q>>q6*lCeqyLM*$>e2*2lKl*$*q2*q6*lCyqeLM>+>q6*",
"qMy2>*>eyelClq**>2>*$qKLl>2Ms6>**qsesCxe*$>>>*$6C_x22Msq>**qyelCxq*$>>>*",
"eKxq*$*226sM622>**>2$>lKx*6LMq*$*222yMq>2>***>$>lKM>2LMq>$*262eMe22>***>",
"qKl6>*>**$6q>>e2$$2e>>qeq*qKx6>*>***2q>>e6*$6e2*qyq*6Kxq>*>**$2e>>e6**2e",
"*qee*>2>*2sl>>eq2$qCy>>qq$*qyq*>6>*2yl>*eq2$qMe>>6q**qee>*6>>>yM6*ee2$6x",
">$66>6y2>eCT>>eye*qKxq*>q6*$>q>qy2*eCK6*qse>qCMq*>qq*$>q>6y2>qMK6*qyy*6C",
"s*+$6xM2>CLC>*eCCq6eCx> *CM$+$6xK2*MKC2>qMKe2eCx> *xC*$*2lC6>MKC6*qCKe2y",
"y$6eqMK6>KKC2*2sxxeqCM>>eMs$2eqx)6>CLC2$2yMxyeCC>*eMy*2eesK6>CLK6$2yMMye",
">>xCqsC22CKM2*$2yLxqMl*sKy>*lCesK6>MKC2*$>eCxqMM>eLs>$sLeyC6>MLCq$*>eCMe",
"6MCy>qs26KMee2+$2le>ee$sK22MMy26s>2RCse2+$2se>ye+eL6>MMs66s22RCye6++>sy2",
"qCy>*>2*6My2666>*6>*>66ll>qCs>*>2>2xy22qq2*2>*>66sx66Cs>*>2>2Ms226q>*22*",
"ee2$*>**6e2$$qKq$*>*$6Axqqee2$*>**2e6$+6Cy*$>*$2DMqeee2*>***>y6*+2Ks*$*>",
"q>2>*>2**>26eMWe$>>*>exe>ee>>>*>6**>26exEs$>>*>exe>qe2>2**6**222qxWy$>>$",
"2*qe>2e6*$2yCLC6>eq*6ee>>q6*qy>2e6*$>yCKKe*eq*6eq2*q6*6y22e2*$2yCLKq*qe>",
"$*lCq2yMs$2yysy2>Cx6>2qe6>$$sCq6yMF$>ysss2>xMq>2qeq2$$yLe6eMl$>eyys2>xMq",
"*2ylyq6xxe66q6>$>MMe*$6q6>*2elyq6lMe66q6>$>xMe**2q6>>2eFyq2lMe66qq>$>lCy",
"yq>*e6*2lKq$e6$$>qee>***>qee>*e6*2sKy$qq*$>qye2***>6ee2*q6*2yLs*6q*$*qee",
"Me2>6>*2lKe+$qvy62>>62*$6xMy6>2>*2sLg+$2ly6>>*62*$2lCy6*22*2sWs$+2ss62>>",
"l6ee*$*6sCe$*eLl6**>qq>2sKxqey>$*6yKy*$qKMq*$>ee>>yCM6ey>$*2yKy>$qKMq>$>",
"2*lC>$>*6eqqMMy6*$qMs66lMs2$yC2$**2yeexMy6*$qMs66sMl6*yC2$*>2yqqxMy6*$6x",
">qxx>$***>qsMs2*+$yLlqqCK6*qlx2$***>6sCl2*$+yWx6eMKq*6lM6*$**>2yCl2*+$eK",
"qKl2>*>***2eq6>*>$yKs66MC*6Kx6>*>***6ee6***$eKl66lC22Lx6>*****2ee6**>$6C",
"yKl6$ex>>xe>e6*sl*2y6>>qy6yKx6$eM2*xy>qq*yM>>y6>>qyqyCx6*6M2*ly2q6>yM>>y",
"xKy2>eCqeKq$22*sM22q>$*26elKs2>eCq6Ke$26*yM62q>$*>6qlKs2*qMeqKy$22*yM6>q",
"xCq*e2>lCe>$$*>*2qee>>62*qxLe*q6*lKy2$$$*>>6ye>*q2*6lKy$q6>sCs2$$***>qee",
"el>*e2*xKe22ye*$>ee22ql6$>es6*e2$lLy22ye>$*eq6>qlq$>ql6*e6$lKe22ye>$*qe6",
"2e>>e2>lMeqsKl**>q6$2lKs*$>e2>q2*lCeqyKx*$>q6*2sKl**>q6*q6*sCeqeKx*$>q6*",
"6Ms6>**qyexKlq$*>2*$$6C(l*2Cs22**eyelKxe*$>>**$6KEb>2Ms2>*>qsesKMe*$*>>*",
"eKxq***626sx622>**>2$>lKl*qTM6*$*262yMq>2>**>2$>lKx>2LMq>**262yxq>2>***2",
"eLl6>***$*6q*>e2*$2e>*qyq$eLx6>*>**$2q*>e6**2q>*qeq>qLM6>****$2q>>e6**2q",
">eyq>*2>*>ys>>e6>$qMe>>qq$>eyq*>2>*2es>>eq>$qMe>>qq**eyq>*2>**el2>ee2$6l",
"*$6q>6e>>yMK2*qse*qKxq$2q6*$66>6y>*qCK2*eye*qCxq*>q2*$2q>6y2>qMK6*qye>6M",
"s*+*6lM2>CKM>>eCCq6eCl> >Ml*+*6lC6*xLK2*qMKq6eCx>+*xx*+*2sK62MKK2*qMCe6e",
"y$2eqM^22K/C>$2sMxeqCM>*eCs$>eqME6>CLC2*2yMMy6CG>*eMl$2eqlK6*CLK6$2yMxye",
">*xKesC2>CLM2**2yKxqMl*yKy>*sKqsD2*MKC6$*>eKMqMx*eKy>*yLesK6>MKK6$*2eCMe",
"6xMs2qs>6KCse2+$6le>ye$sK22xMs2ql>2KCye2+$2sy2ye+eLq>xMs26s>2TCye6++2ly2",
"eKy>*>6*6Cy2q62**62*262lM>6Ks>*26*2Ms2666*>22*262yM26Kl>*>6>2Cs2662>*62*",
"ey2**>>*6e6$+qCe$***$2Cxqqey2*>*>*2eq$+6Ky$*>*$2CMqqey6*>***2eq*+2Cy$*>*",
"e>>>*>2$*2>6qb`e*>***eMe>ee>>>*>2*$222qzWs$>>*>qxy*ee2>**>6*$>22qz~s$>>*",
"2*ee>6e6*$6yMCC6*yq>6eq>*q6*qy>2y6*$2eMKKq*eq*6ee2>q6$qy>2e6>$2eMKCq*ee>"
};
