/* XPM */
static char *e64dd469b83a4c6a8371fdc58181c0c9MOeiRUfHZm8JMn7P[] = {
/* columns rows colors chars-per-pixel */
"70 70 84 1 ",
"  c #4F720B",
". c #52760B",
"X c #567B0D",
"o c #597E0E",
"O c #577E11",
"+ c #597E11",
"@ c #57800F",
"# c #5A800F",
"$ c #578011",
"% c #5B8413",
"& c #5E8916",
"* c #578619",
"= c #598619",
"- c #5E8C1B",
"; c #5F911E",
": c #608613",
"> c #638C15",
", c #618E1A",
"< c #669117",
"1 c #699217",
"2 c #63931D",
"3 c #6A9519",
"4 c #6C9A1C",
"5 c #719E1C",
"6 c #709D1E",
"7 c #749F1C",
"8 c #6FA11F",
"9 c #73A01D",
"0 c #75A31E",
"q c #77A51F",
"w c #76A71F",
"e c #78A71F",
"r c #77A81F",
"t c #79A81F",
"y c #7AAA1F",
"u c #5D8F20",
"i c #5F9120",
"p c #619220",
"a c #629220",
"s c #649520",
"d c #659620",
"f c #649722",
"g c #689720",
"h c #659821",
"j c #679821",
"k c #669921",
"l c #699820",
"z c #699A21",
"x c #6C9D21",
"c c #6E9E20",
"v c #6EA122",
"b c #72A220",
"n c #73A320",
"m c #71A322",
"M c #73A322",
"N c #76A721",
"B c #74A723",
"V c #75A922",
"C c #78A920",
"Z c #78AA22",
"A c #79AB23",
"S c #7BAD23",
"D c #7EAD21",
"F c #7CAE22",
"G c #7DAE22",
"H c #7CAE24",
"J c #7DB123",
"K c #7CB024",
"L c #7EB125",
"P c #7FB324",
"I c #82B123",
"U c #81B323",
"Y c #80B125",
"T c #83B424",
"R c #82B525",
"E c #82B527",
"W c #84B525",
"Q c #84B625",
"! c #84B826",
"~ c #86B926",
"^ c #85BB27",
"/ c #88BB27",
"( c #86B928",
") c #88BC28",
/* pixels */
"-O>!3X$+o-2pYZ-$oOwR2-lYb=X>Q>+$##-,dYV-$ooVP,2lRx=.1!,X%o%2-xQv=#o#yL",
".4V2>+X+%X%gd2%OXX6Rd22R4X9V2>oX#$X-dg,$O.+ZF222Q3XZmp%oX$#X-22,$XX$eF",
"$eF2%#3>o1<-2,o>>X3b&%,m2$FF;$#4>o1>&2-o<<+4x-%-b3%PV-#:4$#3a&2&#3>o4x",
"2VVp$%!4XQ6.2,XFPX=2$+$-22VB2#>/>oQ6.2-XFFX--oo#-;2Fb2X,!>%/3.2&#Qr.&-",
"2He$,,:3wl>oOOO:,22<#%-#,2YwX-,#4Vl&o+$%%,,d2o=-%&2Y9O-,%6ml&X$$%:,22,",
"-b6.,2.3R2=%>&$o%22-$24o$2B4.22.6R2-%>>$o$21&%24X%2B4.2,.BL-$%>>+X%22-",
"$--o,2$3Y2-;Yeoo&d%#2bF$Xo--#22X6Y2&2Y7X#&2%$2VF$o$,-o,2owH2-2Q4Xo-d$$",
"o69-&%o,x2xZb2oo$&%$$4RZ1Xb9,%#o242xZb,X#%>$$$9YZ>+B4,%%#2libZb>X+%>##",
"XwLd%o#&--xP2&%%%o%%.1HL4XyA2%o#&,-4F2=%%$o%%.4HR1XPVp%o%%--nZ,=$%#o%%",
"XeP2%##$$X%i$%2%o+-,o&dp%XLA2%o$$%o&-$%l%o#,-X>d2&$YV;%+o%$o-,+>2$o%,>",
"X>42&+-%#%27%%2,%X4V&%%d=X<4p%$&$%%27$%d-%o4b=%-p&X13a%$&%$%47+&d-$+46",
":X$2%%2,#2BR:$pl2+6Ll-o2<%X%2%&x>+pBY$%dl2XwHj%X2-%X%2%&l%%dVP$%dl,XeH",
"Q1XX=dL3XwPZ:%pHZ--2P3X 3^>..-4L>+ZPyo%dFV=24L<O 3Y%XX&xY%%FLeo$dY9-,4",
"B$$32dY3$eYF:$%49B22T4X<4b$#42lR>+ePF#o-4bb22R1O38b#%4,lI>%IPV%$,b9mpl",
"-X>/x-P3+ZYF>.o=2Qx2P<#Rb=O<^2<Y<+ZFy%oo%4L22L>+Rb=X3^42P%%FHb%oo=xW2d",
".6F4>O4&#FV22-X+-l>$x$XY6.yVj%%l%%YB2d-.O-j&&x%XR4XyZd%%4%>Rbda>.o,x%&",
"$bb=$$>%%b3%-,1O$,%o-,1B3$Bv%$$,%#V2%-,<#$&%$-,3w4OVv%$$,$,V<=-,1#%-#$",
"p2-o$%#+%2-o.,!1Xo%$.4Q2;d2&+$%o#%2&o.<!<X#$$.9R;&2p&X$%#o%2%o.4Q%oo%$",
"j&%-%#2%.%-,9ZQ>O-$$2l2#&j%$,$$2$.%&2wPY>+-$#2d2$&d%%-#$2$X$&2yLF%$-o#",
";$%b,%22>+&dbZw%%v<%,-2%&,o>v-%d31X%dwVm:%6,%22,%&2X>v-&23>X&2Vy9$-9>%",
"o.,/n2iBYo%d,pp$>!v-X&2x-X.>/x-2AYo%j;;2$>!b-.,dx&..4(4;2LF &ji;2.3!x-",
"&&,>22%>vb1%d,%o%vl2o%&%%&-,>2p#2x7<%2-$X&bl-o%>%&-->>22%2v9<%2-#o>vj-",
"4l-X&2+$2R4.,,$%&&;,%$#o,xl-X,,o%2!4.2,%%%--,%ooO<xj-.2-o%j^3.2-#%&,2-",
"R4u2%o+,dY6..>Qv-#X#2&#*bRl;2%oo-4Y3..>!v-$X$l%o=bLl;,%o$-4R<. 3Qj-#.$",
"v&&Z<O+%>x3=46b,%o<4p,,vm4%2V>X%%-x2-46b<%+342--bb4%>Z:$$%,92&49x-%o34",
"=$>Y1X$+$-22HV-+oXwR2-dY9*O<R,o$o$--4Lm=$+OAL,2dLv=X3Q,X%o#&-lTm*#o#yL",
".6F2&+XX%.&jd,$oOX9YdpdL4.rV2&oX#%.&l2-$+.+9H22dR3+Vw2>X.%#.-j2&oXXoeL",
"%VF;%#4>o3,-2,o13X39,%-93%yV-#%7%o31-2-o31X4x-%-b<%FB-$&9$$62-a&o4<.44",
"2VZ2+%R4oQ6.2-oZZo=;$#o-;2VB,X>(<+R4.2,.AZo,&o+$-,jHb2O>R&&(1.2&#RwX--",
"pFVX>2#3Z4&o#X$%%222#%,%-jPw+-,$6Zl&oXo%%>22,O&&$-jL9o-,#7Vj%oXo#%>2a2",
"-94o,2.4L2-%3>$o%j2&%2b#$-94X2-.7Lp-%3>%o$j,&%46+O,b3.2&.yL-&&3,$X%d2&",
"o=-o-2$3L2-iRr++%j%X2VP$Xo=-o22X7L2&2QwX+&d%$pFZ%O$-%+22XwA2-2T7Xo-j#$",
"o4m->%o,bpxZv2X$$>$o$4RZ3X9v-%%o<xpxZb,X#%%##$4RZ>$Bx,$%+2xivZb,o#%%##",
"XrLp%X#&-=4H-&%%o$%%X<ZL3.FZ2%o#&--4Z,%%%##%%.3FL1oFHp%o$,-%6V-%&%#o%%",
"XwKi&X##$X%;#%j%o%-2o&s2&XPZ2%##+#o%,$&a%$X22o&d2%#IV,%+###o--o,2%+$2-",
"X:<j&o-%$%4y%%d->.4F-%$2-.><a%#-%$=4V%%j-&XvV-%%d$X>sd%+,$#>4B$%2-%X9b",
">oX2&%l,#2mR:$242O4Ax&o,;>.$2%&x>o2eH$%2l2$9Al%o2,>X%2%-4%%2FF#%2x2O9L",
"Q<X.=lP3XFLF:$pPI&&2F4X.3!>o.-xY>$eYZ%%2FZ--4R3X.3Q%X.&xY%>PLe$=lYM--4",
"m$#722P3#rPA##%4MVd2R4X3x9+%62lR1+eYF%%,lmw22^<X3xco%72gQ>:FLy#%-4B92l",
",$>R4,A3#rAr,X+%sR4-H<#Rm=$<R22L>oZHN%+X%2P2;L1$Rb=$3Q23F%%FFw%oO*4Q22",
".9Ld-%d&%YV2d-.o=l>$2%.R6.yHp%%l%%Ye;j-.o>2%%l$XP3.FV2%%g$>Q62d&.o>j$%",
"%4x%$+%%$x3%%,4:$&%#&<4v2%b4%$#&%%b<%%,4%$&%%%<4b3&b4%##&$&b2$%24$$>%$",
"j,-o%$++%2-X.<R1X$$#.4!--dp&o%$%#$u%o.3(>X##%.9R-;22-o%%o$%;&X.4^%Xo%$",
"j-$,%o2&.o&iBPY>+&%$222#-d%%;$#2%X$-2wIY>O;#%p2<X-j%%-$$2$X%=3ZYF%%;o$",
",+%b,%22<o%jbVB%%v2%222%&,o>v,%d3,o%gBVB%%v-&-2,&&-X>9,&23,X-xbVv+>9,%",
"oo>Ib,,BY$%32-,O>Rv-X&22,o.>Qx2-ZI%%2--i$>Lv-X,2j&o.<Q4-;PZ.&2-22X<Qx-",
"-,,%22$,lA3+22Oo%442##&$%-,,%22$,xZ1$d&Xo%4j;##&@&,2,:22O24F<$l-.o&xl,",
"v2,O&2+%dY4.&,>&%--,%%#%,xl,X,,o&dY3$,>>%>-,-###$<v2-X-,o%l!<.-,>%-=,-",
"Qx2p%%o%lY9..>!b,$X$2,o-vRl;2%o+-lY4..<^4,oX$d%o-bR2,2%o+-xQ1..3Qx,oXO",
"x%%H,o%%&x2-49x,$o162-,9ml$,F,X$%&x2&99x2%o3x2,,bvx$2H>O$$,x2>764,%+34",
"=$<L<X%#$-,pFB=$oXwR2-jY4=$1Y>o$$#-;2L9=+oOZL-pdY6*$1L,X%o%-;jP4=oo+FH",
".9H2&oXo%.%l2-#oXX6Y22dY4.yZ,%+X##.&j2-+OXOrLa22Y3XFZ,$oo+o.-l2&$XXoeF",
"=rZp%$w>X63%s-+44o<x&%%v2>ZV<O:N>X93%p,o44X34%%>42,Fm2$>b%$9,%2-o73X44",
"2VZ2%%Y4$R4.2&oNV+-,#o%=2dZB-%>Y<$R3.,-OeeX--+$$-22F9-@>R>>(<.2&%H6o-&",
"dHVX,2o3Fg%oXo#$&2p2o%;#%dLVO,2+4L2&oX+%$&2j,X-&$&lR6X22+9V2%oX+$%-2ji",
"-43X,2.4Yd,%31+o%22-%49oO,x3X,p.9R2=>3>+o%d,&&l6o$-9<X2-.NH2%>3,$O%d-&",
"o-,X,2o3H222RZOO%2%o;VL%oo--#2,o4P2,jR9+o%2%%,ZL%+o,-o2,owZ2,dE4Xo>2%%",
"X9B2%$o,gpvRx&oo%%##X4RL1XeN,%+o2d;vFx-X%%%#++6LY1XZ9,%#+,d2ZHx-o%O$#o",
"XBFs-o#%-&4b,&&$#o%&X<bV<OZFp%o#%&%4V-$,%$+&%X3ZF,oFV;%#+:&%4b-%%%%$>%",
"#9H2%+#$$.%-X%2&o#-2o%p2%oZH2%$$##o%&X&j%o+-2o&22%%FV;%###+o--.,2%oO,,",
".:1j&+-%$%4y%%2,-.6F-%%p-X:<d%+-%#%4Z#%2,%OwM&%%p-.><d%$&%%=4Bo%d,=XbZ",
">o+,%%x,$2BP>$2x2$4Fx>o-,>oO2%>x>$dVH$&2x2$6Zx>o-<>XO2%-b%%4HH%%2x2+6V",
"!,O.&gY3+yPA%%pAF--2Y4O.3(>..-xT>$FFy$%2HZ--dE1X.4Q%X.=xY>%YLw%%dYB-,4",
"b++Z42Y4XZYF>o%2vZj2R3X6bx+%e2gQ<+ZPF%O&2vHddQ>O6b4X>Z24Y>%FYyo+&dbZ2d",
"=%<Y4-Z<oZFB>Xo%2L4-H<ORb=%3L23H>+ZPw:+o%jP22A2#R0=%4L22P%:FZ9%$%%lP21",
".wLs&$2-%Lb;l&.X%j&op*XY4.yH;%%p%:Y9ug-.+%d$%lXXL3.YA;%%2$>Qxi2>.#>d$%",
"%xl%%%&$$b2%%,4>$&$%%<9v2%v4%$%&$%B2%$,6:$&%$%<6m2-94%$#&$&m,%%,6%+%%$",
"dp=#o##%%,&oX3(<Xoo%X4P--di&#$##$%&%oX3)>X##%.9L--2;%#%###%;%#o6Q%+%%+",
"d%$;%+2%Xo&pZYL>Op%o2l,X-2#%2##d$.$-2FLP,+-%$d22X>4#%-%%2%X$-2ARF$$2o%",
"&o>V1&dl3+%j4bb%%V2%&,2>,&o,V2=p43o%jv99%:V<-&,2-,$.,A2-243.&l89c+>B,&"
};
