/* XPM */
static char *_e6b88dbff7c43e89fc2416380248731WDvuuHKcSQ6G7H2C[] = {
/* columns rows colors chars-per-pixel */
"72 72 251 2 ",
"   c None",
".  c #010002",
"X  c #0A0102",
"o  c #02010B",
"O  c #0C030A",
"+  c #0D0D09",
"@  c #120003",
"#  c #12020B",
"$  c #1C0508",
"%  c #181807",
"&  c #030417",
"*  c #160415",
"=  c #101216",
"-  c #240507",
";  c #360908",
":  c #2B140A",
">  c #271805",
",  c #341309",
"<  c #240615",
"1  c #3A1716",
"2  c #261614",
"3  c #3B3819",
"4  c #30290D",
"5  c #080725",
"6  c #11162D",
"7  c #371427",
"8  c #2E172F",
"9  c #002534",
"0  c #03273A",
"q  c #172333",
"w  c #352E30",
"e  c #450707",
"r  c #581406",
"t  c #481919",
"y  c #521007",
"u  c #49251A",
"i  c #562F1F",
"p  c #481934",
"a  c #581737",
"s  c #520F2D",
"d  c #64132F",
"f  c #4C2A2E",
"g  c #793A29",
"h  c #793E36",
"j  c #6B3930",
"k  c #721B0D",
"l  c #3F4A24",
"z  c #725114",
"x  c #4F4E2B",
"c  c #6E4D36",
"v  c #7E6C33",
"b  c #44491F",
"n  c #0A2C41",
"m  c #393E43",
"M  c #711749",
"N  c #4D3347",
"B  c #573347",
"V  c #572E4B",
"C  c #78244A",
"Z  c #653548",
"A  c #6D3254",
"S  c #5C2B51",
"D  c #005B75",
"F  c #375149",
"G  c #554C4C",
"H  c #524E53",
"J  c #705355",
"K  c #71714B",
"L  c #6B6B6A",
"P  c #57656A",
"I  c #882217",
"U  c #91342A",
"Y  c #B1392E",
"T  c #942C15",
"R  c #874836",
"E  c #954E33",
"W  c #AF4C2E",
"Q  c #A7763C",
"!  c #D34F38",
"~  c #FE5529",
"^  c #EA4D37",
"/  c #FE4E34",
"(  c #FE5737",
")  c #F34F2D",
"_  c #FE6939",
"`  c #F76630",
"'  c #893157",
"]  c #BA3D7A",
"[  c #AD346E",
"{  c #971C5D",
"}  c #D4337B",
"|  c #E3266F",
" . c #8C5148",
".. c #AA5A4E",
"X. c #986653",
"o. c #BA735C",
"O. c #AF6B56",
"+. c #8D4768",
"@. c #B04E76",
"#. c #97677A",
"$. c #BB7566",
"%. c #FD5744",
"&. c #F1554D",
"*. c #C66758",
"=. c #D2755A",
"-. c #FC6548",
";. c #FF7145",
":. c #F96D54",
">. c #C6527E",
",. c #DB5D65",
"<. c #948236",
"1. c #A8954B",
"2. c #A28864",
"3. c #FF915D",
"4. c #FFBC4C",
"5. c #FFB158",
"6. c #D08973",
"7. c #F78C69",
"8. c #FF9465",
"9. c #FF9C65",
"0. c #FF946C",
"q. c #FF9B6D",
"w. c #FB8A75",
"e. c #FF9573",
"r. c #FF9B74",
"t. c #FE957B",
"y. c #FF9C7A",
"u. c #F39675",
"i. c #EC9169",
"p. c #FFA26D",
"a. c #FFA563",
"s. c #FFA375",
"d. c #FFA27C",
"f. c #FFAA7A",
"g. c #FFC554",
"h. c #FBE774",
"j. c #F1DE79",
"k. c #006D9C",
"l. c #037DAE",
"z. c #3377A4",
"x. c #6A7897",
"c. c #B83F81",
"v. c #CF3A8B",
"b. c #EB3A94",
"n. c #FF3DA9",
"m. c #B0498B",
"M. c #936F8A",
"N. c #AF6A8D",
"B. c #D5478B",
"V. c #CB4896",
"C. c #D94A97",
"Z. c #D75697",
"A. c #CB4E8E",
"S. c #EA4798",
"D. c #F35195",
"F. c #C86998",
"G. c #D16F9B",
"H. c #FC708F",
"J. c #FC49A6",
"K. c #FF5AAB",
"L. c #FF5CB4",
"P. c #FF58B9",
"I. c #FF4EB1",
"U. c #D975AB",
"Y. c #E777A8",
"T. c #FD66B7",
"R. c #F97ABB",
"E. c #F16FAE",
"W. c #FF5AC6",
"Q. c #FF59D6",
"!. c #FF4BD3",
"~. c #FF64C7",
"^. c #FF6AD0",
"/. c #0082AC",
"(. c #0083B3",
"). c #5992AD",
"_. c #059ED6",
"`. c #00A5D8",
"'. c #0AA3CB",
"]. c #00A9EA",
"[. c #00B2E6",
"{. c #00AAF4",
"}. c #28A0DC",
"|. c #5198D7",
" X c #6499D9",
".X c #66BCDF",
"XX c #6B97E6",
"oX c #53A2E3",
"OX c #52A2DD",
"+X c #6EC5EB",
"@X c #29CDF0",
"#X c #949592",
"$X c #B3B4B5",
"%X c #B19B8C",
"&X c #FF9B82",
"*X c #F59088",
"=X c #D1A797",
"-X c #FFAB84",
";X c #FFAB8B",
":X c #FEA386",
">X c #FEB38A",
",X c #FFB396",
"<X c #FFA892",
"1X c #D784AF",
"2X c #E681AB",
"3X c #E984B3",
"4X c #EF87B6",
"5X c #CFB8AC",
"6X c #FEB8A9",
"7X c #FAC98D",
"8X c #FEF688",
"9X c #FFFC93",
"0X c #F8E98B",
"qX c #D1C5BA",
"wX c #FBCCBC",
"eX c #F8D3BE",
"rX c #F3CAB3",
"tX c #ABBEC2",
"yX c #FF8DCC",
"uX c #FB89C6",
"iX c #FF92CD",
"pX c #FC95C8",
"aX c #FF8CD3",
"sX c #FF88D4",
"dX c #FF93D2",
"fX c #FF99D4",
"gX c #FF94DC",
"hX c #FF9ADB",
"jX c #FFA9D6",
"kX c #FFB7DB",
"lX c #FF96E2",
"zX c #FF98E2",
"xX c #FFBCE4",
"cX c #FFACEA",
"vX c #C6CBC6",
"bX c #D8D4CA",
"nX c #F6D4C7",
"mX c #F2D7CC",
"MX c #FEE4CB",
"NX c #FFE8D9",
"BX c #FFC5EC",
"VX c #FFC8E9",
"CX c #F1D3EA",
"ZX c #DBEBEB",
"AX c #E4E8E8",
"SX c #FEF9E9",
"DX c #ECF7F7",
"FX c #FEFDFE",
"GX c #F7F9F8",
"HX c #EEF0EF",
"JX c #DFE0DE",
/* pixels */
"                                                                                                                                                ",
"                                                    * * 5                             5 & 5 5                                                   ",
"                                                  * O O =                             5 * * *                                                   ",
"                                              o S 4XY.2X1Xp &                       7 1X3XY.3XA                                                 ",
"                                              B N.BXBXVXVX#.B                     V @.xXBXBXCXG.A                                               ",
"                                            * R.BXFXDXGXFXxXN.X                 & F.xXFXDXDXFXBX4X+                                             ",
"                                            O Y.BXGXH L FXxXF.. . . . o o X o . . @.xXGXP F ZXVXE.@                                             ",
"                                            . G.xXDXw F FXjXY.A B B B Z Z B Z Z B G.kXFXH 2 HXBX2Xo                                             ",
"                                            $ Y.xXGXf H FXjXsXzXzXhXzXhXgXgXhXhXhXuXjXFXJ w AXBXY.*                                             ",
"                                          N 2XuXdXjX3X3XjXdXyXyXhXhXyXgXgXdXgXhXaXsXiXjX3XY.jXfXyX3XB                                           ",
"                                        . A cXdXyXsXdXdXsXsXiXdXG.G.dXZ.F.gXU.G.aXaXyXyXgXgXsXaXaXjXJ o                                         ",
"                                        . C gXdXaXyXyXiXaXaXiXiXw p fXV 7 jXf p iXdXaXsXyXaXsXdXiXgX' X                                         ",
"                                      & #.4XaXyXpXyXiXiXyXyXyXiX8 O a M.N.p o 8 pXaXyXyXiXyXuXpXiXaX^.M.6                                       ",
"                                      o 1XhXsXyXyXyXiXiXyXyXsXdX+.p p 2XpXa p A pXyXyXpXiXyXuXyXaXaXzX4X* &                                     ",
"                                      X Y.aXdXyXiXaXsXyXyXdXdXaXfXfXiXiXaXgXdXfXdXsXyXiXyXaXaXyXaXdXhX4X$                                       ",
"                                      X Y.gXyXyXaXaXaXaXaXsXaXyXdXaXdXaXgXaXiXdXdXsXsXyXaXiXpXuXiXaXdX3X$                                       ",
"                                      @ U.zXyXyXyXyXyXiXyXpXyXyXyXyXyXuXyXyXyXyXyXiXiXiXdXsXyXyXyXdXgX3X$                                       ",
"                                      X U.zXsXaXaXaXdXfXhXfXzXzXhXhXhXgXdXgXlXzXhXhXhXzXgXzXdXdXiXyXdX3X*                                       ",
"                                      X U.lXfXzXE.Z N N N V B B N N N N N V S B N N N f B V B G.zXlXgXR.$                                       ",
"                                      X E.pX1X1X#.2 : > , , , , , , : : : : : : , , , , , > > +.1XU.uX4X<                                       ",
"                                      # uXG.. X j :Xq.9.f.d.;Xf.y.0.q.r.r.r.9.r.-X;X;X:Xu.q.>Xh o o N.pX*                                       ",
"                                        S A U U ! d.-Xi.j c j g i.-Xq.r.y.y.f.u.g c h g i.f.d.=.E X.J A                                         ",
"                                        @ I -.( ;.t.u.X.> > + % O.u.q.e.d.r.u.O.> % > > X.*Xt.s.f.>XE -                                         ",
"                                      @ W / ~ ~ ;.&Xt b h.0X0X0Xl u d.t.r.:Xi 4 j.0Xh.h.x 1 8.r.:Xq.9.6.-                                       ",
"                                      . 6.w.) ~ ` y.1 b 8X1.1.9X3 t :Xr.e.y.u 4 9X1.<.9Xx $ q.r.&Xe.7X5X@                                       ",
"                                      2 5X6X,./ _ f.1 b h.4 4 0X3 u s.9.q.s.i 4 8Xb > 8Xc = r.r.t.<XmXJXw q                                     ",
"                                  . G mXeXeXwX:.;.r.1 x 9X3 l 8X3 1 :Xp.y.&Xu 4 9Xx 4 9Xx $ q.t.:XNXSXFXAXL o                                   ",
"                                  H %XMXeXmXwX-._ e.*.J K + + Q v ..d.y.y.&XO.E K % + v v ..r.0.>XGXFXFXFX$XL 6                                 ",
"                                + qXMXeXnXmXrX_ _ 0.;X$.@ $ & @ 6.-Xw.q.u.t.-X6.o # < . *.;Xr.9.-XGXFXFXFXFXAX=                                 ",
"                                o rXMXnXnXnXnX:.-.y.a.q.w.7.i.u.MX5X< $ % - $XNXi.7.7.7.&Xq.r.0.;XFXFXGXGXFXJX+                                 ",
"                                5 L =XnXnXmXeX:.-.f.9.e.&X&X9.r.SXtX. . . . $XSXy.q.p.q.y.9.r.8.;XGXFXFXFXvXx.6                                 ",
"                                  . G mXwXwXrX-.-.r.r.0.y.y.e.q.MX$XX + . . $XMXt.e.s.r.t.r.t.0.<XSXGXGXSXL .                                   ",
"                                      w qX6X-./ ( %.0.r.q.r.y.r.j H JXJXJXAXJ i y.r.r.r.r.t.e.t.t.-XNXZXm q                                     ",
"                                      5 L =.) ~ / ( 7.y.r.r.d.0.E P #X#X#X#XJ R r.r.r.r.t.r.q.y.r.8.*X#X5                                       ",
"                                        + t %.` ~ ~ 0.d.r.t.9.0.<X$.. . . . 2.,Xr.r.r.r.r.p.9.r.s.p.j &                                         ",
"                                          2 y &.%.%._ ;.d.t.8.r.8.;XvX=X6.vX,Xt.r.q.t.r.r.r.r.;Xu.u 6                                           ",
"                                            # U Y Y ^ ( 3.0.t.r.8.;XMX,X,XMX,Xt.q.u.t.r.s.t.*.o.X.5                                             ",
"                                              . o O W %.&.0.&Xt.q.y.t.t.e.q.r.0.q.q.r.s.;X6.@ . &                                               ",
"                                              . s Z.d ; y ^ ;._ 0.f.f.d.s.s.d.d.d.-Xi.y : i A.d &                                               ",
"                                              . M ^.{ a a T Y Y ..o.*.o.o.$.$.O.O.o...d a { T.' o                                               ",
"                                              O M ^.T.P.W.p . . . . . X . X . . . . s E.~.P.~.C o                                               ",
"                                                  a s d M @.V.A.A.' . . . . A S.V.V.] d a d a p                                                 ",
"                                                  7 t ; . [ D.Z.Z.@.a O # s [ Z.A.D.+.X $ e s 8                                                 ",
"                                              . M T.~.@.. . . X X d ^.a p ^.M . . X . X >.E.T.C &                                               ",
"                                              . a P.Q.m.. ' A.m.v.[ a * . a [ ] @.} ' o } ^.~.M .                                               ",
"                                              8 ' K.I.' X B.^.K.T.B.. ; 2 . v.~.P.~.D.$ ' J.P.[ 7                                               ",
"                                            * A.L.K.a . X v.W.I.~.B.. @.C.. @.I.L.T.S.# . s K.W.Z.O                                             ",
"                                            X C.W.I.p . o C.L.P.!.D.Q H.K.Q H.!.I.P.S.@ . 2 K.!.J.X                                             ",
"                                            y Z.T.K.p . . V.~.K.K.H.4.*XH.g.w.K.P.W.S.@ . 7 H.T.D.t                                             ",
"                                        5 u ( 7.p.s.u . . b.K.K.a.4.4.5.5.4.4.a.L.P.,.# . 1 &Xq.q.f.c .                                         ",
"                                        & r %.w.s.s.u . . B.Q.I.W z z z z z z E L.W.S.@ . 7 t.a.p.-Xh o                                         ",
"                                        o r ( 0.r.t.u . . V.W.W.a $ < * < < @ d P.^.S.X . 1 r.p.r.d.g o                                         ",
"                                      o . r _ a.-X<Xi . X v.L.L.v.| L.L.K.L.} | I.W.S.X . 1 -X;X:X,XR o                                         ",
"                                      . L X.k R c R $ . o S.W.I.J.n.W.W.I.P.n.n.L.W.S.@ . $ c R R  .f                                           ",
"                                      o qX=X# * # $ - @ o m.^.T.E.T.P.P.T.E.~.W.E.^.A.. . & . o . .                                             ",
"                                      X =XmXqXbX=X&.&.U . z.XXXX XXXoXoXOXOX XoX|.XXx.o                                                         ",
"                                      X 5XNXmX<X3.~ ( Y . /.[.`.k.D D D D D D k._.].(.o                                                         ",
"                                      # =XeXnX:.) ~ ( Y . (.[.'.n . . . X @ . 9 }.[.(.o                                                         ",
"                                        = X.HXnXy.~ %.E . (.[.`.0 e ^ ^ ^ &.y 9 '.[./..                                                         ",
"                                          w 2.=X7.~ %.U X l.{.`.n e ( ( ) Y e 0 `.{.(..                                                         ",
"                                            o W / / ~ W . l.}.`.0 y ~ ( W . . 9 `.]./..                                                         ",
"                                              e e ; ^ ! . /.[.}.9 y -.I <   . 9 _.]./.o                                                         ",
"                                                    I k # (.{.}.0 - Y t     . 9 `.]./.o                                                         ",
"                                                    # o . (.{.}.q . &       . 0 `.].(.o                                                         ",
"                                                        . l.].'.0 .         O 9 _.].l..                                                         ",
"                                                        X ).@X.Xn .           0 .X+X)..                                                         ",
"                                                        X tXFXFXH .           m DXFXvXo                                                         ",
"                                                        . qXFXFXH .           x FXFXbXo                                                         ",
"                                                        . #X$X$Xw .           w $X$X#X.                                                         ",
"                                                        & . o . . &           . . X . .                                                         ",
"                                                                                                                                                ",
"                                                                                                                                                "
};
