/* XPM */
static char *_2bc083710e4468098ab0fa289571e3dTWgsG5YoUjcQ8xdS[] = {
/* columns rows colors chars-per-pixel */
"70 70 256 2 ",
"   c None",
".  c #010102",
"X  c #0B0205",
"o  c #0C0B01",
"O  c #02030B",
"+  c #0B030B",
"@  c #030C00",
"#  c #14020B",
"$  c #180505",
"%  c #17150A",
"&  c #060516",
"*  c #1A0717",
"=  c #151915",
"-  c #280602",
";  c #270517",
":  c #25171C",
">  c #30120A",
",  c #392616",
"<  c #303015",
"1  c #37132B",
"2  c #2A1526",
"3  c #152B3C",
"4  c #112E3D",
"5  c #252135",
"6  c #392435",
"7  c #383736",
"8  c #2B3336",
"9  c #1B0922",
"0  c #4D1710",
"q  c #43261B",
"w  c #5C2716",
"e  c #4D1331",
"r  c #572C25",
"t  c #573426",
"y  c #582739",
"u  c #48302E",
"i  c #673826",
"p  c #72342F",
"a  c #6F2124",
"s  c #3B4528",
"d  c #56432A",
"f  c #494629",
"g  c #73483B",
"h  c #03375C",
"j  c #0F3251",
"k  c #2D2E4B",
"l  c #023761",
"z  c #123D68",
"x  c #383961",
"c  c #561544",
"v  c #6E1A48",
"b  c #5A2745",
"n  c #4F314B",
"m  c #752C49",
"M  c #782C58",
"N  c #7A335C",
"B  c #683254",
"V  c #752D61",
"C  c #384653",
"Z  c #12496A",
"A  c #2A647C",
"S  c #494949",
"D  c #59504D",
"F  c #704F54",
"G  c #764E6B",
"H  c #757773",
"J  c #6B6755",
"K  c #8C3029",
"L  c #9E3822",
"P  c #87492F",
"I  c #AE5A3A",
"U  c #D85637",
"Y  c #CF4C2D",
"T  c #E65433",
"R  c #DD623A",
"E  c #E46539",
"W  c #D8421C",
"Q  c #802A59",
"!  c #84345B",
"~  c #843563",
"^  c #993668",
"/  c #8B2764",
"(  c #A3326E",
")  c #851C62",
"_  c #855843",
"`  c #985B4F",
"'  c #A5454D",
"]  c #9B6D56",
"[  c #8E6F54",
"{  c #A86A55",
"}  c #B36C55",
"|  c #A87557",
" . c #B8775A",
".. c #AA6E4C",
"X. c #8F4A6E",
"o. c #BD477D",
"O. c #A64179",
"+. c #AD7367",
"@. c #8B617F",
"#. c #D65744",
"$. c #CA435D",
"%. c #E65A47",
"&. c #F55244",
"*. c #C17A5A",
"=. c #D96F54",
"-. c #F57C5A",
";. c #F56B51",
":. c #C97766",
">. c #958E3F",
",. c #B78158",
"<. c #898874",
"1. c #B48469",
"2. c #AEA76B",
"3. c #938945",
"4. c #FA905B",
"5. c #EBAC50",
"6. c #C68566",
"7. c #DA8E73",
"8. c #FE8A67",
"9. c #FD956B",
"0. c #FE9C6D",
"q. c #FC9467",
"w. c #FE9573",
"e. c #FC9A73",
"r. c #FC9C7B",
"t. c #F99777",
"y. c #EB8D72",
"u. c #C9B66F",
"i. c #FEA47B",
"p. c #FFAA7D",
"a. c #FCA376",
"s. c #FBAB6C",
"d. c #C2815D",
"f. c #FFC46C",
"g. c #175B8A",
"h. c #375385",
"j. c #006989",
"k. c #1B698E",
"l. c #2D75AB",
"z. c #0E78BE",
"x. c #737190",
"c. c #6E74B2",
"v. c #4D70B8",
"b. c #7177C1",
"n. c #E43697",
"m. c #B9498B",
"M. c #AF4D8A",
"N. c #986C89",
"B. c #B37099",
"V. c #BA78A2",
"C. c #8C4787",
"Z. c #C35893",
"A. c #CC6A96",
"S. c #FD7883",
"D. c #E25DA8",
"F. c #F758AA",
"G. c #E95CB5",
"H. c #FA58B8",
"J. c #F747A8",
"K. c #C679AB",
"L. c #CB7BAB",
"P. c #D47EB2",
"I. c #D671A8",
"U. c #FB66B9",
"Y. c #E47DB5",
"T. c #F16EB1",
"R. c #D354A0",
"E. c #FF54C7",
"W. c #FF64C5",
"Q. c #FF65CC",
"!. c #FE76C9",
"~. c #FF65D1",
"^. c #FF75D5",
"/. c #2D86BF",
"(. c #2A8BCA",
"). c #3387CF",
"_. c #189BD7",
"`. c #58ABD9",
"'. c #55B0D9",
"]. c #6AA7D8",
"[. c #629BD6",
"{. c #878583",
"}. c #939791",
"|. c #A7A8A7",
" X c #B8AFA9",
".X c #A0A59B",
"XX c #D79782",
"oX c #FC9D83",
"OX c #FD9583",
"+X c #EE8C8F",
"@X c #FEA584",
"#X c #FFAC84",
"$X c #FEAB8B",
"%X c #FFA58A",
"&X c #FFB489",
"*X c #FDB89A",
"=X c #F5AB98",
"-X c #CF81AE",
";X c #CC84B4",
":X c #D583B3",
">X c #EF87B3",
",X c #C7B0B3",
"<X c #FCBCA7",
"1X c #DAB19F",
"2X c #BDC5B7",
"3X c #CBCD87",
"4X c #CDD384",
"5X c #D6D589",
"6X c #D5D28F",
"7X c #EAE897",
"8X c #F9F895",
"9X c #DCCBBB",
"0X c #EBCCB7",
"qX c #FCCCB7",
"wX c #F5D1B8",
"eX c #8A9AD9",
"rX c #8EAFDE",
"tX c #8D99EA",
"yX c #91A0F0",
"uX c #D495C1",
"iX c #FB8BC6",
"pX c #FD8CCC",
"aX c #FA86C6",
"sX c #EB97C4",
"dX c #FB91CB",
"fX c #F694C7",
"gX c #FF8DD3",
"hX c #FF8FDB",
"jX c #FF94D5",
"kX c #FD9CD5",
"lX c #FF95DA",
"zX c #FF9BDB",
"xX c #F79FD5",
"cX c #EF89C3",
"vX c #FCA5D9",
"bX c #E1ABCF",
"nX c #FF9DE2",
"mX c #FF9BE8",
"MX c #FFA6E9",
"NX c #FFB7E5",
"BX c #FFB3F8",
"VX c #DDB3D0",
"CX c #BDCBC7",
"ZX c #CFD3D2",
"AX c #E9DACC",
"SX c #F7D8C6",
"DX c #EBD8D4",
"FX c #F6CBC6",
"GX c #F6ECDE",
"HX c #FFD8F4",
"JX c #FCCAEB",
"KX c #FFE8FF",
"LX c #FEFDFF",
"PX c #FAF8F8",
"IX c #EFF0EB",
"UX c #D7E1C4",
/* pixels */
"                                                                                                                                            ",
"                                                                                                                                            ",
"                                                                                                                                            ",
"                                                  # * +                           * # & 9                                                   ",
"                                                G fXY.sXB                         :X>X>XL.#                                                 ",
"                                              G bXPXKXKXuXG                     B.HXPXKXJXN.                                                ",
"                                            * sXKXIXCXIXHX:XX               . X.JXPXZXZXLXNXB                                               ",
"                                            * Y.KX|.@ CXHXK.O . . . O . . . . X.NXIXC D LXvXB                                               ",
"                                            O Y.PX|.. CXHX>XV.K.K.K.K.K.K.K.V.Y.vXPXs S PXvXb                                               ",
"                                            X.cXJX,XN VXNXpXzXmXnXlXmXnXjXMXzXpXfXJXN.N.JXvXN.n                                             ",
"                                          D BXpXaXgXzXiX!.pXgXY.>XfXY.cXfX:XiXpXfX!.jXxX!.iXBXK..                                           ",
"                                          B nXgXaXgXfXdXpXpXxXu G vX# B.;X* I.zXdXpXpXpXgXiXlXZ..                                           ",
"                                        G ;XdXpXgXiXpXdXpXdXvX1 . b N.G : . L.lXpXpXpXpXpXiXgXcXN.5                                         ",
"                                      . :XMXiXpXgXaXpXpXiXgXjXX.6 b vX@.6 y :XjXpXpXpXpXpXpXpXlXvX2                                         ",
"                                      . A.mXiXpXpXpXdXpXpXpXdXkXvXvXiXjXzXkXfXgXpXpXpXdXpXdXgXgXfX:                                         ",
"                                      O A.nXiXpXpXpXdXpXpXpXpXdXdXgXgXgXgXgXpXpXpXpXpXpXpXpXpXgXfX2                                         ",
"                                      O V.nXaXiXlXzXlXjXlXjXjXjXzXlXhXzXzXhXlXjXjXjXjXzXjXdXgXgXfX:                                         ",
"                                      . V.nXaXjX:XL.P.P.;X;X-X:XP.;X-X-XP.P.;X;X-X-X;X-X;XpXgXhXsX:                                         ",
"                                      . V.nXjXMXN X + + O + + X + + + X # X + + + # o + ; fXmXnXsX:                                         ",
"                                      . uXK.6 n J ,...,.,.*.1. .{ } | | } { ,.d.6.d.| | ] y 6 G MX1                                         ",
"                                        x.F 0 0 *.*X&X .} +.{ p.&Xa.#Xp.#X&X .| +.{ r.&Xr.t t g N.k                                         ",
"                                        $ a ;.T 4.r.7., $ o o ] $Xw.w.9.%XXXq o @ o ] %X0.$X*X6.X                                           ",
"                                      & K U T T 9. .> 2.6X5X4Xd p @Xt.i.*.> 2.6X5X3Xf p %Xr.0.s.6.:                                         ",
"                                      O +.8.W T t.+.@ 4Xu.>.8Xs q p.e.p.| . 5Xu.3.8Xs t i.9.4.&XwX:                                         ",
"                                      7  XqX%.U q. .. 4XJ < 7Xs t &Xt.i. .. 6X[ % 7Xf w p.s.r.vXIXJ                                         ",
"                                    8 DXAXAXqXY 8.} o 4X[ < 7Xt r $Xt.a.} o 4XJ < 7Xf w #Xq.SXLXLXLXx.                                      ",
"                                  J ,XwXAXDX0XU -.t.| f = . < _ 7.$X#Xp.i. .d = . < [ 7.0.q.SXLXLXPXDX}.                                    ",
"                                . <.PX0XFXDX0XU -.p.#XF t p t 1X=XI [ ` 6.wXg t i y 7.$Xt.q.wXLXLXPXLXIX.                                   ",
"                                  H AX9X0XDX0X#.-.a.w.a.#X@X%XPX.X. . . C LXqX0.p.%Xe.e.e.q.SXLXLXLXIX X=                                   ",
"                                    n GXAXAXqXU -.p.t.w.0.9.t.GX|.. . . S LX&Xq.t.9.e.e.9.t.SXLXLXLX}.                                      ",
"                                      D 9XwX=.U E -.r.OX0.e.@X[ H |.|.|.}.J 7.@XoX0.t.r.0.w.$XSXLX{.                                        ",
"                                        <.XXU T Y E r.r.e.e.@Xr D ZXZXZX}.- 7.i.e.e.w.w.t.e.t.=X X                                          ",
"                                          w ;.R T ;.r.r.t.0.w.$X{ . . . q $Xt.t.e.t.t.t.t.q.&X1.O                                           ",
"                                            0 %.E &.#.e.r.0.0.9.=XZX .,XFXt.e.w.t.9.q.p.$X*XP :                                             ",
"                                              p K L T -.9.oXr.q.=XSX%XqXqXe.t.0.0.a.%X6.g ` 7                                               ",
"                                              O . q #.Y =.OXw.0.0.t.0.9.9.a.0.e.a.7.+X` . @                                                 ",
"                                              & M.m.. . K ;.%.9.$X%X@X@X@X@X@X*XXXX . v D.#                                                 ",
"                                              . ( !.m.m.m > > 0 r r r t r q , q p ( M.D.U.*                                                 ",
"                                                  m.m.Z.~ e e c ; . . . + e e 1 c Z.Z.m.X.                                                  ",
"                                                  . . . N !.H.!.M.. . O b T.U.U.R.. . @ &                                                   ",
"                                                  ; m $ + 9 * X m I.# C.M.* ; ; c m.D.N O                                                   ",
"                                                e v / $ 1 N m m V ! . u ^ m V : * U.!.O..                                                   ",
"                                              & e ( M X ~ !.U.^.O.. 2 . e W.!.! * G.Q.^ .                                                   ",
"                                              & e ( Q . / W.H.Q.^ O T.c 1 H.Q.M * G.~.( O                                                   ",
"                                              & e ) ) $ M W.F.E.A. .F.:.:.J.~.V > F.~.^ O                                                   ",
"                                              O a $.' $ V W.F.S.s.f.8.s.s.OXU.M ; G.Q.( O                                                   ",
"                                                P ;.#.- V W.F.y.5.5.5.5.5.s.T.V % G.Q.( @                                                   ",
"                                                  $ $ . ! W.H.v @ o X o @ - T.! + D.U.^ .                                                   ",
"                                                      O ~ U.U.) v ~ ~ ~ Q e Q F ] +X>X` O                                                   ",
"                                                      O / W.F.n.J.~.W.Q.H.n.$ _ *X0.p.` O                                                   ",
"                                                    O . V Q.F.H.F.G.F.F.H.F.* g @X4.s...O                                                   ",
"                                                    Y - k c.[.eXtXtXeXeXyXrX= P <X@X*X{ .                                                   ",
"                                                q L ;.- j _._.l.j.j.k.A j.k.h g { ` ] D                                                     ",
"                                      O % : = = ' ;.R - h (.`.4 . $ . . . . l.Z . . X                                                       ",
"                                      O  XDX0XUXy.T #.- h (.[.4 w =.$ 8 k o g.(.g..                                                         ",
"                                        f .XGXy.#.T U - h (.'.4 - r 6 h.x O k.).l.+                                                         ",
"                                          S  Xd.T T E - h ).[.8 .         O A /.g.O                                                         ",
"                                            : ZXOX&.%.- l (.'.3           . z g.Z O                                                         ",
"                                              7 , > > . l ).`.3           O z g.Z O                                                         ",
"                                                      + j /.[.j           O h.v.h..                                                         ",
"                                                      & h (.'.4           O x.].c.O                                                         ",
"                                                      + l (.'.3           + c.tXc.&                                                         ",
"                                                      + j z.`.3           X 5 k 5 O                                                         ",
"                                                      O C ].rX8                                                                             ",
"                                                      O {.LXLXS                                                                             ",
"                                                      & {.LXLXS                                                                             ",
"                                                      O 7 {.H :                                                                             ",
"                                                        O @ . &                                                                             ",
"                                                                                                                                            ",
"                                                                                                                                            "
};
