/* XPM */
static char *f1dea5b7cdbf4622d946c36d5f2b662f3RBUigBlbmmLZv1a[] = {
/* columns rows colors chars-per-pixel */
"72 72 241 2 ",
"   c None",
".  c #020202",
"X  c #0B0B0C",
"o  c #1B1B1B",
"O  c #141415",
"+  c #0D110E",
"@  c #10231D",
"#  c #162C24",
"$  c #2C2C2C",
"%  c #262425",
"&  c #29312E",
"*  c #322C31",
"=  c #343535",
"-  c #3C3C3C",
";  c #373837",
":  c #2E3131",
">  c #221D1F",
",  c #403C3E",
"<  c #48263C",
"1  c #1D4830",
"2  c #39443C",
"3  c #304F3A",
"4  c #436E3D",
"5  c #41423F",
"6  c #3F3F40",
"7  c #483B45",
"8  c #66355B",
"9  c #7E006B",
"0  c #7E1F6D",
"q  c #752D68",
"w  c #3B4A43",
"e  c #365544",
"r  c #346B53",
"t  c #444444",
"y  c #4B4B4B",
"u  c #464846",
"i  c #50484E",
"p  c #48574C",
"a  c #545454",
"s  c #5C5C5C",
"d  c #555A56",
"f  c #515352",
"g  c #61565E",
"h  c #486747",
"j  c #497544",
"k  c #576659",
"l  c #4E6E57",
"z  c #61735F",
"x  c #635E61",
"c  c #754F6C",
"v  c #587467",
"b  c #646464",
"n  c #6B6B6B",
"m  c #666867",
"M  c #71696E",
"N  c #677768",
"B  c #776A73",
"V  c #6B7A72",
"C  c #747373",
"Z  c #7B7B7B",
"A  c #777978",
"S  c #70766F",
"D  c #910B7C",
"F  c #873575",
"G  c #855679",
"H  c #8C487B",
"J  c #817D7F",
"K  c #2F962F",
"L  c #37B037",
"P  c #07A124",
"I  c #40A03E",
"U  c #00EF04",
"Y  c #00FF00",
"T  c #00F606",
"R  c #00FD14",
"E  c #00FA1A",
"W  c #00EF19",
"Q  c #00EB2A",
"!  c #00FF24",
"~  c #00F929",
"^  c #00FA34",
"/  c #16F735",
"(  c #0FE835",
")  c #27E839",
"_  c #27FA3B",
"`  c #32EB3D",
"'  c #2BC333",
"]  c #3A8B57",
"[  c #3BB746",
"{  c #0CB666",
"}  c #3EAE6E",
"|  c #499746",
" . c #5B8556",
".. c #4E8A56",
"X. c #62995C",
"o. c #60855A",
"O. c #53A84D",
"+. c #5DB656",
"@. c #51B14F",
"#. c #62A65B",
"$. c #63B95C",
"%. c #528D6A",
"&. c #678767",
"*. c #699666",
"=. c #73986E",
"-. c #788478",
";. c #779775",
":. c #6F8B73",
">. c #57AA6C",
",. c #69A564",
"<. c #73AD6C",
"1. c #6CB364",
"2. c #72B66B",
"3. c #7AB478",
"4. c #72B078",
"5. c #38FB44",
"6. c #38E540",
"7. c #36D542",
"8. c #58D757",
"9. c #52CE4F",
"0. c #62C75B",
"q. c #60D65B",
"w. c #47E649",
"e. c #45FF49",
"r. c #54FF54",
"t. c #52E654",
"y. c #6DC567",
"u. c #6CFF65",
"i. c #74FF6C",
"p. c #7CFF73",
"a. c #83987F",
"s. c #82AA7D",
"d. c #85FF7B",
"f. c #9D0088",
"g. c #AB0493",
"h. c #AE0E94",
"j. c #9C2F8A",
"k. c #AE2E98",
"l. c #BD00A3",
"z. c #BF17A5",
"x. c #BD31A2",
"c. c #C601AB",
"v. c #D801BA",
"b. c #D618B5",
"n. c #CB10AE",
"m. c #D62AB8",
"M. c #D53BBA",
"N. c #C731AA",
"B. c #E304BE",
"V. c #9A558A",
"C. c #A65B95",
"Z. c #AC4C97",
"A. c #897583",
"S. c #A37597",
"D. c #A86B9A",
"F. c #BB4BA4",
"G. c #BB58A4",
"H. c #BA68A7",
"J. c #B379A5",
"K. c #D447B9",
"L. c #CB56B2",
"P. c #CA6CB6",
"I. c #E709C6",
"U. c #E416C4",
"Y. c #FD03D6",
"T. c #FC16D5",
"R. c #F212CF",
"E. c #F22BD0",
"W. c #FF03E9",
"Q. c #FF02FD",
"!. c #FF04F9",
"~. c #FF1AFA",
"^. c #FF13E3",
"/. c #FF26F5",
"(. c #DE30C2",
"). c #EC4ECE",
"_. c #E977D3",
"`. c #FF59EE",
"'. c #EA72E2",
"]. c #7C8781",
"[. c #679882",
"{. c #7B9786",
"}. c #5DAF89",
"|. c #77AF8D",
" X c #848484",
".X c #848A84",
"XX c #8C8C8C",
"oX c #878A89",
"OX c #8B958C",
"+X c #829D86",
"@X c #948B91",
"#X c #899990",
"$X c #949494",
"%X c #9B9B9B",
"&X c #989997",
"*X c #93918F",
"=X c #A2899A",
"-X c #98A69A",
";X c #9AB299",
":X c #8AAF8B",
">X c #A699A3",
",X c #B690AD",
"<X c #9CB4A2",
"1X c #A4A3A4",
"2X c #ACACAC",
"3X c #A7A8A8",
"4X c #A8B3AA",
"5X c #ACBAB1",
"6X c #B4B3B3",
"7X c #BCBCBC",
"8X c #B6B9B6",
"9X c #AFAEB1",
"0X c #A0A79F",
"qX c #C3A1BA",
"wX c #92C592",
"eX c #8DFF83",
"rX c #94FF8A",
"tX c #91FF87",
"yX c #9DFF92",
"uX c #A1FF96",
"iX c #A6FF9C",
"pX c #ACC4B3",
"aX c #B8C6BC",
"sX c #AEC9A9",
"dX c #A6E39E",
"fX c #C0C2BF",
"gX c #CDB1C6",
"hX c #E3B1D5",
"jX c #FA8EF0",
"kX c #EA99D8",
"lX c #BECAC2",
"zX c #C3C3C3",
"xX c #CCCCCC",
"cX c #C4CBC6",
"vX c #CDD2CE",
"bX c #D3D3D3",
"nX c #DBDBDB",
"mX c #D5D9D7",
"MX c #D5CBD3",
"NX c #E3E3E3",
"BX c #E9E9E9",
/* pixels */
"                                                                                                                                                ",
"                                                                                                                                                ",
"                                                                                                                                                ",
"                                                                        V                                                                       ",
"                                                                    L.V.^.V.Z.t                                                                 ",
"                                                                C.W.k./.Q.E.N.T.G                                                               ",
"                                                                7   m (.).m.a * $ .                                                             ",
"                                                                  o c c.f.v.i . . . .                                                           ",
"                                                            b A oX&Xc c.h.c.m #XZ b - O .                                                       ",
"                                                      b A .X$X$X3X@Xu c.L.f.p %X3X*X$XJ m 6 o                                                   ",
"                                                s n Z >X7XxX$Xd &Xd y N.x.z.u n $Xx 8XxX8X&XC d $ .                                             ",
"                                            s m C 6XxXxXxXbX&X% C s k U.v.M.p C n ; 7XxXxXxXxX2Xs d - .                                         ",
"                                        b C y -. X3XxXxXxXxX9XA.&X9X3XR.Y.K.3X3X&XXXlXzXxXxXxX>X*XC a C 6 .                                     ",
"                                      .X5X*XXXXX7XA 6XzX6X9XxXnXNXnXzX).Q.H.xXNXNXNX8X9X8XfX9X].xX XXX$XpXn .                                   ",
"                                    -XjX`.-X7XA lX3XJ 2X6XxXbX8X&XA.Z @XL.XXA .X%X7XmXxX9X9XZ 8X6XZ 8XoX`.hXA O .                               ",
"                                  C -X,XQ.H.lXXX4XgX XcXNX7Xy > * - t a {.t y ; * > M zXBX9XA.zX@X%XpX(.Q.>X&Xs O .                             ",
"                                a x >X-XP.Y.2XgXXX2X&XC a t t 6 ; ; u M XXz w 5 = , y 5 s Z %X1XA.lX,XW.J.;XXXa s . .                           ",
"                              s oX1XJ 8XpXK.H.pX6Xb ; y = = k ].3X7XzX2Xn 8XfX7X1Xa.4 2 5 u - C lX5XL.J.cX9XZ 2XA a . .                         ",
"                            C *X XxX3XA 6X5X9X1X- 7 ; w Z &XC 9X;X2.a.7X*Xo.*.s.;X2Xx 0X&.4 u , f 9X9XlX2XZ gX7XXX Xt . .                       ",
"                          n XXxX%X XbX3XA.6X-.XXa w V 9XzX:XoX7.Y Y w.<.OX<.s.<.#.X.S :XcX>X*.j b *XXX7XA 6XcXa.1XxXA.w .                       ",
"                        n J cXvXxX%X$X%X4Xy - n A 2X8X>.~ Y 3.0.Y Y Y T 2.Y Y Y ) *.z *.$.3.fX%X*Xm , M 2X&XJ 1XxXxXxXA % .                     ",
"                        Z lXxXvX7X6XXX9Xd u : n C .X-.T Y Y w.O.Y Y Y Y Y Y Y Y Y 0.R 9.=.#.@.n XX*.4 ; n 2X&X6XgXxXxX6Xk X .                   ",
"                      C 9XbXxXgX6X6XnXx 2 = ].xXl C =.Y Y Y Y Y Y Y Y Y Y Y Y Y Y Y Y Y Y 2.N -.a.xX=.4 = J NX9X5XzXxXxX&Xs . .                 ",
"              H     A XXXX1XxX6X9XBXM w & &XcXv N 9.*.T Y Y Y Y Y Y Y Y Y Y Y Y Y Y Y Y Y Q z o.#.1.fX<.4 ; 1XNX2XlXxX%X*X Xa . * c             ",
"            ).(.  ; .X3Xs : XXbXmX>X; $ n zX] v e.Y U Y Y Y Y _ p.u.Y Y Y Y Y Y Y Y Y Y Y T Y Y ;.#.1.gX*.4 * 6XmXxXZ = C 1X].. o b.G           ",
"            N.c $ A %X>X&Xb 3XNX9XO t p s %.&.y.Y Y Y Y Y Y 5.rXiXi.Y Y Y Y Y ! Y Y Y Y Y Y Y Y T ;.O.a.d O.a o zXxX%Xm 0X>X$X= + H N.y         ",
"          N.E.C.g.c N k a 1XcXMXt t w 1X].n N Y Y Y Y Y Y 5.eXuXp.! Y Y Y Y r.rXr.Y Y Y Y Y Y Y Y / x &.OX;XI * x NXgX#X, k v 8 h.F.^.Z.        ",
"        ].Q./.J.l.c.9 c k 4XmX&X% $ oXzX{ X.#.9.Y Y Y Y e.rXyXp.! Y Y Y Y u.yXyXe.Y Y Y Y Y Y Y T 9.X.*.$.7X$.j $ 7XmX-Xm q D v.c.P.Q.Q..       ",
"        =XN.).U.9 V.M.c.m.P.gXm - & 7X}.>.t.Y Y Y Y Y e.rXiXi.E Y Y Y Y u.yXrXr.Y Y Y Y Y Y Y Y Y Y Y <.#.:X&XP f XXgXL.b.n.K.F D (./.G..       ",
"        P.m.l l.v.c.Z.n.I.U.K.k & V 2X{ :.T Y Y Y Y r.rXyXi.E Y Y Y R i.uXyXr.Y Y Y Y Y Y Y Y Y Y Y Y ~ :.$.zX$.j A.).I.B.x.k.v.c.k.h T..       ",
"          E.  f N i c F.m.m.).$X3XA %.>.8.Y Y Y Y r.yXuXi.R Y Y Y E i.uXrXr.Y Y Y Y Y Y Y Y Y Y Y Y Y Y q.z OXA 2XC ).m.(.C.c g N % o T..       ",
"          C.  m %XA = d 7XgX].f A C ].V 0.Y Y Y e.rXyXu.Y Y Y Y E i.iXrXe.Y Y Y Y Y Y Y Y Y Y Y Y Y Y T +.B a.C ;.p XXgX2Xp 2 A.-X: . q         ",
"              .X%X1XZ J xXxXa o v cX} &.$.Y Y Y d.yXu.Y Y Y Y ! p.uXtXe.Y Y Y Y Y Y Y Y Y Y Y Y Y Y Y Q $.X.z zX+.4 s vXaXA J 6X%X7 . .         ",
"              A &Xn a %XnX9X, & #X5X%.9.Y Y Y Y ! _ Y Y Y Y ! p.iXeX5.Y Y Y Y Y Y Y Y Y Y Y Y Y Y Y Y Y Y 6. .aXs.j ; zXxXXXa J $Xb . .         ",
"               X3XZ f &XNX$X= & 9X|.=.( Y Y Y Y Y Y Y Y Y ^ d.uXtX5.Y Y Y Y Y Y Y Y Y Y Y Y Y Y Y Y Y Y Y W &.0XsX| $ 2XMXXXa @X%Xb . .         ",
"               X9XxXxXzXNXZ = 2 fX}.4.U Y Y Y Y Y Y Y Y ^ d.yXd._ Y Y Y Y Y Y Y Y Y Y Y Y Y Y Y Y Y Y Y Y Y 9XzXsXK $ *XnXfXxXxX1Xs . .         ",
"              n 6XvXcX6XzX1X6 e @X[.;.w.Y Y Y Y Y Y Y ^ eXiXeX/ Y Y Y Y Y Y Y Y Y Y Y Y Y Y Y Y Y Y Y Y Y 6.a.>Xa.K , 9X8X6XxXxX1Xs . .         ",
"              Z 2XMXxX6XxX7X7 w b #X].,.Q Y Y Y Y Y _ eXyXd./ Y Y Y Y Y Y Y Y Y Y Y Y Y Y Y Y Y Y Y Y Y ` *.:X.Xl L u zX8X8XxXxX1X- . .         ",
"              J 2XbXzX6XxX7Xw w 5X}.4.Y Y Y Y Y Y _ eXiXd.~ Y Y Y Y Y Y Y Y Y Y Y Y Y Y Y Y Y Y Y Y Y Y Y Y Y s.sXI y xX7X8XxXxX1X; . .         ",
"              Z 3XzX8X1X&X6Xi 3 6X|.4.W Y Y Y Y / eXuXp.! Y Y Y Y Y Y Y Y Y Y Y Y Y Y Y Y Y Y Y Y Y Y Y Y Y Y -XsX| i 7X@X3X8XxX%X- .           ",
"                A.-.oX%X$X>Xa = 0X-X:.) Y Y Y Y u.uXp.! Y Y Y Y Y Y Y Y Y Y Y Y Y Y Y Y Y Y Y Y Y Y Y Y Y Y U 6X;X .a 1X%X%X XJ Z ; .           ",
"                b 8XbXbX2X%Xa = [.lX%.8.Y Y Y Y ! e.R Y Y Y Y Y Y Y Y Y Y Y Y Y Y Y Y Y Y Y Y Y Y Y Y Y Y Y ) fX<.j x 0XzXbXMX1Xx O .           ",
"                s .X.XA.Z 3Xn 7 v 9X%.:.*.T Y Y Y Y Y Y Y Y Y Y Y Y Y Y Y Y Y Y Y Y Y Y Y Y Y Y Y Y Y Q &.$.#.9XX.5 a.%XJ J .Xa.s X .           ",
"                n XX9X8XaXaXXX X%Xm v A _ Y Y Y Y Y Y Y Y Y Y Y Y Y Y Y Y Y Y Y Y Y Y Y Y Y Y Y Y Y Y Y T 8.n M 0XC =XfXaX8X9XB n O .           ",
"                >X#X+X=XK.H.8X].n oX|.&.8.Y Y Y Y Y Y Y Y Y Y Y Y Y Y Y Y Y Y Y Y Y Y Y Y Y Y Y Y Y Y Y U L fXa.S 1X4XP.L.=X{.%XXX. .           ",
"                XXkXQ.W.U.,X8Xi w l 8Xr *.Y Y Y Y Y Y Y Y Y Y Y Y Y Y Y Y Y Y Y Y Y Y Y Y Y Y Y Y Y Y Y ;X7X8X@.h A 8XJ.Y.W.~.MXk .             ",
"                  kX`.S.pX7X9X X- w 5X#XV 5./ / Y Y Y Y Y Y Y Y Y Y Y Y Y Y Y Y Y Y Y Y Y Y Y Y T ( Q y.a.zXs.| u 2X9XaX<XS.`.,X$ .             ",
"                  5X:.7X%XA XX9Xy w v bX9XA N ( Y Y Y Y Y Y Y Y Y Y Y Y Y Y Y Y Y Y Y Y Y Y Y Y Y 6.N k N fX[ d d >XXXA 9X5X{. X. .             ",
"                   XA oX XzXxX%X$X= 2 ].Z :.~ Y Y Y Y Y Y Y Y Y Y Y Y Y Y Y Y Y Y Y Y Y Y Y Y Y Y E N C a.s.j * %X1XbX8XJ  XM f .               ",
"                    f oXgX5X$X XxXn y e g }.^ E Y Y Y Y Y Y Y Y Y Y Y Y Y Y Y Y Y Y Y Y Y Y Y Y ` =.o.*Xk | i  XzX X%X6X7XJ a X .               ",
"                    A b A.*X6X9X7XNX6 w r lX{.^ Y Y 1.E Y Y Y Y Y Y Y Y Y Y Y Y Y Y Y Y Y ) q.w.-.O.;X1X[ k s BX8X6X2XoX Xb ; .                 ",
"                      n 6XvXxX8X2XmXJ o ; v lX#X^ y.=.Y Y Y Y Y Y Y Y Y Y Y Y Y Y Y Y Y Y W b z O.;XaX@.h % zXxX9X7XxXxX1Xa . .                 ",
"                        &XvXxXzX6X8XxX7 : # v zXV Z ^ Y Y Y Y W Y Y Y Y Y Y Y Y Y E Y Y ` =.o.-.&X7X#.h > b nX9X8XxXxXxXC % .                   ",
"                        S 1XxXxXxXzXmXMXs ; @ v M 1X}.>.wX8.0.O.Y Y Y Y w.Y Y Y Y #.1.<.#.O.s.&XZ X.3 * S bXxXzXzXxXxX%Xy . .                   ",
"                          n lXxX8XM 3XNXmXS 2 XXoX:.7XzX7Xb A =.y.8.` L ;.w.8.2.<.&.&.@.1.zX7X:.2XZ u XXNXmX1XM gXvX6Xb . .                     ",
"                          C ].gXx : $X7XbX,XJ.M u @ r -XxX%X.X .,.=.<.<.*XX.2.$.@.,.-.4XcX.X] 1 a B J.gXvX6XZ * C aXA , .                       ",
"                            A OXXXXXm m >XM.!.H.g - - w r [.m 3X2X<XwX|.-.|.wX<X4X$Xk 4...e y 6 N ).!.M.>Xm ].XX$X.Xs . .                       ",
"                              J >X3Xy k m.Y.n._.xX].& * w w 1 r v [.-XXXm &X#X=.%.r 3 e w % ; $XbXP.b.I.N.p x 2X$Xa . .                         ",
"                                -.%Xk f.b.n.K.5XmXBXxXM a 6 - y w 2 & d 1Xw 3 w f i - i d XXbXBXcX2Xm.x.v.j.&.&XA . . .                         ",
"                                  N f.I.S.v.b k 2X7XmXnXnXnX1XM a y y k *Xy y y a C 6XnXnXNXxX7X&Xd c B.S.v.q N O . + .                         ",
"                            C.S.  0 c.0 Y.0 f s M i 3X7X6X8X7X&X%X@X6X8X2X6X2X*X&X&X7X6X9XzX%Xa OXa p f.Y.D c.8 O Z.<                           ",
"                              T.g G.j.g.l.v oX2Xx t zXcX7X7X9X XgX X3XgXH.lX%X%X7X X9X8X7XcX6X, Z 2XoXp l.g.n.D.c T.;                           ",
"                              K.K.~._.I.8 A $X%XoX1XMXxXxXxX9X XmX].5XgXY.5X2X1XbXoX7XcXbXxXxX%XXX%X$XN F Y.'.Q.x.G                             ",
"                                C.Q.~.r ; . t C  X&X9XzXxXvX9XXXcX XlXP.Y.0X9X XxXXXlXvXvXgX2X$XZ b - . w b !.Q.B X                             ",
"                                 XA.Z.Y.N.-     * s n C $X6X1X.X3XXX4XZ.Q. X3XZ 2X$X6X3XXXn m a X .   s m.R.G B u                               ",
"                                      V.G.M             u b n b x C .XhXjXlX].n x b m a = X           V.L.G                                     ",
"                                                                i d A C V Z n 6 - o                                                             ",
"                                                                                                                                                ",
"                                                                                                                                                ",
"                                                                                                                                                ",
"                                                                                                                                                ",
"                                                                                                                                                "
};
