/* XPM */
static char *fd065d277b5740e4c90d8713712d6654jywYBuQWhZTvZfRt[] = {
/* columns rows colors chars-per-pixel */
"72 72 146 2 ",
"   c None",
".  c #000000",
"X  c #0A0702",
"o  c #0E0B06",
"O  c #120E06",
"+  c #141106",
"@  c #15110A",
"#  c #19140B",
"$  c #1D180C",
"%  c #1F1A12",
"&  c #211D0D",
"*  c #211C13",
"=  c #26200F",
"-  c #262011",
";  c #2A2515",
":  c #2F2814",
">  c #2B251B",
",  c #2F291D",
"<  c #302916",
"1  c #342D18",
"2  c #37301B",
"3  c #3C341B",
"4  c #3B3424",
"5  c #40381E",
"6  c #433B25",
"7  c #433B2B",
"8  c #4B4224",
"9  c #4C432E",
"0  c #524727",
"q  c #504728",
"w  c #554B2A",
"e  c #594F2E",
"r  c #504734",
"t  c #564C36",
"y  c #5B4F3B",
"u  c #5C513C",
"i  c #625632",
"p  c #665B33",
"a  c #6A5E35",
"s  c #62563F",
"d  c #675B3C",
"f  c #6D5F38",
"g  c #6D6037",
"h  c #6F6239",
"j  c #72653B",
"k  c #76683D",
"l  c #7A6A3F",
"z  c #625640",
"x  c #655A42",
"c  c #6B6047",
"v  c #6F6248",
"b  c #706340",
"n  c #766941",
"m  c #7A6C43",
"M  c #73664C",
"N  c #77694F",
"B  c #7C6D4E",
"V  c #7D7046",
"C  c #7F7049",
"Z  c #776950",
"A  c #7A6B50",
"S  c #7E7053",
"D  c #83754D",
"F  c #86784E",
"G  c #837554",
"H  c #877955",
"J  c #8B7C54",
"K  c #857658",
"L  c #867859",
"P  c #8C7C5B",
"I  c #8F8057",
"U  c #8F805C",
"Y  c #93825C",
"T  c #8F8060",
"R  c #968563",
"E  c #988766",
"W  c #9A8966",
"Q  c #9D8B69",
"!  c #A08F66",
"~  c #A08E6B",
"^  c #A39167",
"/  c #A4926D",
"(  c #A8966F",
")  c #A69470",
"_  c #A99671",
"`  c #AF9B75",
"'  c #AC9A74",
"]  c #AC9974",
"[  c #B29E71",
"{  c #B19D77",
"}  c #B29D77",
"|  c #B29E77",
" . c #B19D77",
".. c #B29E78",
"X. c #B39F78",
"o. c #B39F79",
"O. c #B29E78",
"+. c #B4A079",
"@. c #B5A079",
"#. c #B5A179",
"$. c #B5A07A",
"%. c #B5A17A",
"&. c #B4A27A",
"*. c #B6A27A",
"=. c #B6A27B",
"-. c #B7A27B",
";. c #B7A37C",
":. c #B4A079",
">. c #B8A57B",
",. c #B8A37C",
"<. c #B8A57D",
"1. c #BAA57D",
"2. c #B9A57E",
"3. c #BAA77E",
"4. c #BBA77E",
"5. c #BAA57D",
"6. c #BFAA7D",
"7. c #BDA97E",
"8. c #BCA880",
"9. c #BDA880",
"0. c #BEAA80",
"q. c #BDA980",
"w. c #C0AC82",
"e. c #C2AD82",
"r. c #C2AD83",
"t. c #C1AD82",
"y. c #C7B386",
"u. c #C8B387",
"i. c #C8B387",
"p. c #CCB689",
"a. c #CEB88B",
"s. c #CEB88B",
"d. c #D1BA8C",
"f. c #D1BB8C",
"g. c #D2BC8E",
"h. c #D6BF90",
"j. c #D7C091",
"k. c #D8C192",
"l. c #D9C293",
"z. c #DAC393",
"x. c #DAC394",
"c. c #DDC494",
"v. c #DEC797",
"b. c #DAC394",
"n. c #E0C797",
"m. c #E0C797",
/* pixels */
"                                                                                                                                                ",
"                                                                                                                                                ",
"                                                                                                                                                ",
"                                                                                                                                                ",
"                                                                                                                                                ",
"                                                                                                                                                ",
"                                                                                                                                                ",
"                                                                                                                                                ",
"                                                                                                                                                ",
"                                                                                                                                                ",
"                                                                                                                                                ",
"                                                                                                                                                ",
"                                                                                                                                                ",
"                                                                                                                                                ",
"                                                                                                                                                ",
"                                                                                                                                                ",
"                                                                                                                                                ",
"                                                                                                                                                ",
"                                                                                                                                                ",
"                                                                                                                                                ",
"                                                                                                                                                ",
"                                                                                                                                                ",
"                                                                                                                                                ",
"                                                                                                                                                ",
"                                                                                                                                                ",
"                                                                                                                                                ",
"                                                                                                                                                ",
"                                                                                                                                                ",
"                                                                                                                                                ",
"                                                                                                                                                ",
"                                                                                                                                                ",
"                                                                                                                                                ",
"                                                                                                                                                ",
"                                                                                                                                                ",
"                                                                                                                                                ",
"                                                                                                                                                ",
"                                                                                      . . . . . . . . .                                         ",
"                                                                                      . . X X X o # # #                                         ",
"                  . . . . . . . . . . . . . . .                     . . . . . . . . . . . h k a J $.| +.m a                                     ",
"                  . . 4 7 7 4 = - - = - ; # . .                     . . & - = - - = - = ; 3 0 g J 4.$.$.Y H                                     ",
"                  . . / r.t.^ j k j k j k e . . . . . . . . . . . . . . f k k k m m m D j . + g J 7.&.&.3.O.j g a a a a a                       ",
"                W x y _ ,.,.Q g h h g j j p 1 1 1 1 1 . . . X 2 1 1 1 2 a j j e 1 1 1 1 < . # j D Y ~ ) ) ! h l Y Y Y Y Y j h h                 ",
"                R o.r.,.&.>.! g h h h h h h k k k k k X . . + k k k k k h h m q . . . . . . # j f p L W E R a D 7.4.>.3.$.k g g g               ",
"                E W Q D B D m g h h h h h h h j j g j w q q e j g j g j k i @ > M v v M x . + k h j n m n m Q ( $.$.+./ Q I P P G j             ",
"                E W E m j k j f h h h h h h h j h h j j k k k h h h f h a w . > / ~ ^ / R . $ k f a a g h n $.>.$.$.&.~ R E E W J p             ",
"                P q.z.d.d.g.[ p h g j g h h h f h h g h g h g h h h j a . @ P P R / $.+.` T G h 3 . 8 k P W $.$.$.&.&.Q R E E Q x .             ",
"              Q _ i.z.z.z.c.7.D n g g j h h h h h h j h g j h h h h j a . O E Q Q _ $.$.O.Q U V q + 3 e L Q +.$.$.| ' Q R E E Q z . &           ",
"        h n R o.m.x.h.z.z.z.s.4.J p f j k j f h h h f g j g h g j k k h . O P / $.o.$.$.| E E W H j $ . Z / &.&.>./ R Q Q / Q / u . 2 j h h     ",
"      h g n R O.x.z.k.k.k.k.i.&.^ Y m a 2 6 H m g g h h g h h j w 1 1 < . @ / _ $.+.+.$.| E E E P H ; . d H I E ( Q W z 9 9 r E G y B Y m       ",
"    g g f n U O.c.z.k.k.k.v.s.$.&.8.J a . o Q G a g a g g k j k ; . . . . # O.4.+.+.+.+.| E R R W ~ , . 0 g p m Q W / * . . . T ( t.4.>.        ",
"    ^ ~ ^ / ` _ / i.c.k.f.q.q.$.) ) 6 O z K i.r.7.7.7.( E $ 4 ) R L Z x . @ O.$.+.+.+.+.| E E E E Q > . S ^ j w % * * t M K P ' |               ",
"    &.,.&.>.$._ P r.v.k.d.O.O.$./ E - . P { v.x.c.v.c.t._ . % 0.4.7.) R . # O.>.+.+.+.$.| E E E E Q < . R >.m 8 . . . c _ 4.8.&.$.              ",
"            +.| | $.4.3.$.Q W ) r @ u L _ 4.z.z.z.y.>.>._ . * 0.) W E R S S m J <.( W Q W E W Q W W h e ^ $._ / R R E ) {                       ",
"            +.$.$.$.o.$.` W W Q 4 . c _ O.3.f.f.f.t.| +.) . * &./ E E E Q Y w b +./ R R E Y P A K R F m _ &.$.$.4.4.4.$.o.                      ",
"        $.$.    +.    $.o.o._ Q 4 . A q.+.+.$.$.>.+.+.Q P . @ Q R E E R Q S . % Q E R E Y j 8 . - h W *.$.+.+.+.  $.+.    $.$.                  ",
"        $.$.    $.    o.&.O.` ) u * L 3.+.+.+.+.+.+.+./ W ; 4 W R R R R Y B % 7 / Q Q Q W F d ; 9 D ^ >.$.$.+.+.  $.$.    $.$.                  ",
"            +.$.  $.+.        $.) E _ $.+.+.+.+.+.+.$.&.+.W E E E R E Y g j W / $.$.$.>.+.$.>.3.4.$.    +.$.    $.    $.+.                      ",
"            +.      $.    $.$.$.' ( `     +.+.+.  +.+.+.+.) / ( ) / Q E Y Y E   $.$.$.+.+.+.+.+.+.+.$.+.+.      +.$.+.$.                        ",
"                          $.$.  $.$.        $.$.  $.$.+.+.&.$.$.$.$.    4.4.          $.+.    $.+.  $.+.          $.+.                          ",
"                                        $.+.    $.    +.+.    +.+.  $.$.    $.$.                                                                ",
"                                        +.$.    +.    $.$.    $.    +.$.    $.+.                                                                ",
"                                                  $.$.    $.$.                                                                                  ",
"                                                                                                                                                ",
"                                                                                                                                                ",
"                                                                                                                                                ",
"                                                                                                                                                ",
"                                                                                                                                                ",
"                                                                                                                                                ",
"                                                                                                                                                ",
"                                                                                                                                                ",
"                                                                                                                                                ",
"                                                                                                                                                "
};
