/* XPM */
static char *_c23cb97f7a24142a4fe5095a2aa58faLJC3p5hVM6mEOlSb[] = {
/* columns rows colors chars-per-pixel */
"72 72 218 2 ",
"   c #2D392B",
".  c #2F3731",
"X  c #2E3A31",
"o  c #343D35",
"O  c #373F38",
"+  c #3A3E3A",
"@  c #383736",
"#  c #0E6D06",
"$  c #1D6B01",
"%  c #166A07",
"&  c #017500",
"*  c #007D00",
"=  c #097B00",
"-  c #0A7000",
";  c #107100",
":  c #1A7301",
">  c #1B7905",
",  c #087F1C",
"<  c #1A6713",
"1  c #226B03",
"2  c #22690F",
"3  c #246707",
"4  c #247501",
"5  c #257C00",
"6  c #2C7A02",
"7  c #317C02",
"8  c #337508",
"9  c #26631D",
"0  c #29651B",
"q  c #256813",
"w  c #356A1E",
"e  c #297411",
"r  c #38751B",
"t  c #2E4529",
"y  c #31442E",
"u  c #334B2E",
"i  c #2E5D23",
"p  c #315C25",
"a  c #34522C",
"s  c #335829",
"d  c #354335",
"f  c #354C32",
"g  c #394D32",
"h  c #374239",
"j  c #3A433B",
"k  c #354B3A",
"l  c #3D4A3D",
"z  c #3A4635",
"x  c #2C5D3D",
"c  c #385031",
"v  c #325739",
"b  c #107D24",
"n  c #107132",
"m  c #2D6123",
"M  c #336425",
"N  c #366927",
"B  c #3A7225",
"V  c #387529",
"C  c #2C613B",
"Z  c #30702A",
"A  c #40563F",
"S  c #44782D",
"D  c #3D4740",
"F  c #3E4A41",
"G  c #1E7B43",
"H  c #2F6641",
"J  c #287A48",
"K  c #39744D",
"L  c #316642",
"P  c #424D44",
"I  c #454947",
"U  c #445345",
"Y  c #465249",
"T  c #4A564D",
"R  c #4B5B4E",
"E  c #475D48",
"W  c #4D5C52",
"Q  c #4D5650",
"!  c #525D55",
"~  c #565E59",
"^  c #4A624A",
"/  c #4F6154",
"(  c #4F6B59",
")  c #526256",
"_  c #536A52",
"`  c #546459",
"'  c #59665C",
"]  c #56695C",
"[  c #5A6A5E",
"{  c #467C57",
"}  c #5C745E",
"|  c #54755A",
" . c #52664E",
".. c #5C6D61",
"X. c #5E7164",
"o. c #587D63",
"O. c #636C67",
"+. c #617365",
"@. c #647569",
"#. c #667A6C",
"$. c #6A7C6E",
"%. c #647C66",
"&. c #6C7F71",
"*. c #7C7F7D",
"=. c #008300",
"-. c #008B00",
";. c #00890A",
":. c #068407",
">. c #178601",
",. c #009400",
"<. c #009B00",
"1. c #1C9100",
"2. c #018619",
"3. c #009D19",
"4. c #228A00",
"5. c #2A8B00",
"6. c #208406",
"7. c #219B00",
"8. c #218912",
"9. c #00A400",
"0. c #0AA500",
"q. c #00AC00",
"w. c #08A900",
"e. c #16A900",
"r. c #00B200",
"t. c #0AB100",
"y. c #00B900",
"u. c #08B800",
"i. c #12B400",
"p. c #1BB800",
"a. c #00872E",
"s. c #008D2D",
"d. c #008527",
"f. c #029524",
"g. c #008B34",
"h. c #00863A",
"j. c #008A3B",
"k. c #009637",
"l. c #00A436",
"z. c #00B53A",
"x. c #009641",
"c. c #009C43",
"v. c #009A4A",
"b. c #00934A",
"n. c #1B9D54",
"m. c #148748",
"M. c #398755",
"N. c #2A9454",
"B. c #36975A",
"V. c #00A345",
"C. c #00AA45",
"Z. c #00A14E",
"A. c #00AD4B",
"S. c #00B34E",
"D. c #00BB4E",
"F. c #04A554",
"G. c #00B651",
"H. c #00BA52",
"J. c #01B55B",
"K. c #00BB5A",
"L. c #15AA5A",
"P. c #23AE5E",
"I. c #28AB5D",
"U. c #33A35E",
"Y. c #22B05F",
"T. c #10BE62",
"R. c #05BC61",
"E. c #26B160",
"W. c #33A761",
"Q. c #45885B",
"!. c #4B9364",
"~. c #6A846C",
"^. c #6E8273",
"/. c #6F8B74",
"(. c #718576",
"). c #728679",
"_. c #758A7B",
"`. c #798E7E",
"'. c #728877",
"]. c #6D9179",
"[. c #79927D",
"{. c #74957C",
"}. c #4BB270",
"|. c #4BAF6E",
" X c #00C14F",
".X c #00C455",
"XX c #00CB56",
"oX c #00CC59",
"OX c #00C45E",
"+X c #00D55C",
"@X c #00D55A",
"#X c #00CC64",
"$X c #00D364",
"%X c #00D965",
"&X c #25C96F",
"*X c #00E662",
"=X c #00EB64",
"-X c #00F066",
";X c #7A8E80",
":X c #7C9382",
">X c #7C9684",
",X c #809786",
"<X c #829987",
"1X c #849C8A",
"2X c #889F8E",
"3X c #87A18D",
"4X c #89A28E",
"5X c #8AA391",
"6X c #8EAA95",
"7X c #91AC96",
"8X c #92AE99",
"9X c #95B29C",
"0X c #99B59E",
"qX c #9AB6A1",
"wX c #9DBAA3",
"eX c #A0BDA5",
"rX c #A4BFAC",
"tX c #A4C1AA",
/* pixels */
"-.<.9.<.-.* * =.=.=.-.<.9.<.-.=.* * <.y.9.,.,.q.r.-.=.<.9.<.=.* * =.=.=.-.,.9.<.-.* * * <.r.9.,.,.q.r.,.=.,.9.9.-.* * * =.=.-.<.9.<.-.=.* * ,.r.",
",.r.9.-.=.=.-.=.=.=.-.,.,.-.=.=.=.* ,.q.<.-.-.9.q.=.,.r.9.-.=.=.-.=.=.=.-.,.,.-.=.=.=.=.,.q.<.-.,.<.q.-.-.r.9.-.=.=.-.=.=.=.-.,.,.-.=.=.-.* -.q.",
"<.r.9.-.* ,.r.=.=.q.,.=.,.-.* 9.q.=.-.,.-.=.=.,.<.-.<.r.q.-.* ,.r.-.=.q.<.=.,.,.* <.q.-.=.<.-.=.=.,.<.-.<.r.9.-.=.-.r.-.=.q.<.=.,.-.=.<.q.-.=.,.",
"q.r.<.=.-.,.9.,.<.q.,.* -.=.=.<.9.-.-.,.=.=.=.=.-.,.9.r.<.-.=.<.q.,.,.q.,.* -.-.=.<.q.-.-.,.=.* =.=.-.,.9.r.9.-.=.,.q.,.,.r.,.* =.-.=.,.9.-.-.,.",
"9.q.,.=.,.-.=.9.q.,.=.=.=.=.=.=.=.,.<.,.=.=.,.-.=.-.9.r.,.=.,.-.=.9.r.<.-.=.=.=.=.=.=.-.<.,.=.=.,.-.* -.9.r.,.=.,.-.* 9.q.,.-.=.* =.=.=.=.,.,.,.",
",.<.=.=.,.-.* q.r.,.-.-.<.<.=.* =.<.,.-.-.,.q.-.* =.,.<.=.=.,.-.* 0.r.,.=.-.<.,.=.* =.,.,.-.-.<.9.,.* =.,.<.-.=.,.,.* q.r.<.=.-.<.<.=.* =.,.<.-.",
"-.,.-.-.,.=.=.9.q.,.,.<.r.9.* * -.,.-.* -.<.r.9.-.=.=.<.-.=.,.-.=.<.q.,.,.<.r.9.=.* =.,.-.=.=.<.r.9.-.=.=.,.-.=.,.-.=.<.q.,.,.<.q.q.=.* =.,.-.=.",
",.q.<.-.=.=.=.,.<.,.q.r.<.-.=.=.=.=.=.=.* ,.q.y.9.=.-.q.9.-.=.=.=.,.<.,.9.q.9.,.* =.=.=.=.=.=.-.r.y.q.=.-.q.9.-.=.=.* ,.<.,.9.r.9.,.=.* =.=.=.=.",
"<.r.q.,.=.* =.-.-.-.<.9.,.-.-.=.=.=.=.-.* =.9.r.9.=.,.r.q.,.=.* =.-.-.-.<.9.,.=.-.-.=.* =.-.* =.<.r.q.=.,.r.q.,.=.=.=.=.-.-.<.9.,.-.-.=.=.=.=.=.",
",.q.9.-.=.* =.=.=.* -.-.=.=.,.-.* =.-.,.=.=.,.,.-.=.-.r.9.-.=.p u a a u a s a a m =.=.* -.,.=.=.,.,.,.=.-.r.9.,.=.* =.=.=.* -.,.=.-.,.-.=.* -.,.",
"=.,.<.,.=.=.-.=.=.-.<.9.-.=.,.,.-.* ,.q.<.=.=.,.,.=.=.,.,.,.* f j h h h h h j h c -.-.* ,.w.<.-.=.,.,.=.=.,.,.,.-.=.-.-.=.=.,.q.-.=.,.,.-.* -.9.",
"=.* -.-.=.,.<.-.=.<.r.t.-.=.,.<.,.=.,.r.q.,.=.=.-.,.= 0 0 < M } @.@.+.@.O.! R R E N q 9 e <.q.,.=.=.,.-.=.* -.-.=.-.<.-.=.,.q.r.-.=.,.<.<.=.,.q.",
"9.=.* =.-.q.q.-.-.q.r.q.=.=.,.q.q.,.-.,.q.q.=.& =.q.4.f h . Y _.;X;X;X;X_.[ ` ` / l o o u * q.q.=.* =.9.q.=.* * -.<.r.-.-.q.r.r.-.=.,.q.r.<.-.,.",
",.* -.<.,.9.r.-.-.r.r.q.-.* -.<.9.q.<.,.q.q.=.=.,.6 N } @...#.)._._._.).).^.$.$.&._.`.`.'.Z 6 7.=.=.<.9.<.* -.<.,.9.r.,.=.q.r.r.-.* =.<.9.q.<.,.",
"=.=.w.r.,.9.q.-.-.q.r.q.-.* * -.<.r.9.,.q.9.=.<.1.y W `.:X`.`._._.`._._._._.`._.;X8XwXwXqX' t 4.=.,.r.<.=.=.<.r.<.<.r.-.=.q.r.r.,.=.* =.,.q.q.,.",
",.q.q.,.=.,.<.-.-.r.q.<.,.-.* * -.<.,.=.,.,.* 7 r y Q ).`._.)._._.)._._._._._._._.,X1X1X,X`.~.B % ,.r.-.=.q.q.<.-.-.<.-.-.t.q.<.,.-.* * -.<.<.=.",
",.q.<.=.=.=.-.=.-.q.<.-.-.,.-.-.=.-.-.=.=.-.4 h d . T (.`._._._._._._._._._._._._.).^.^.).9XtX[   5 9.-.-.r.<.=.=.=.-.=.=.q.<.-.-.-.,.-.=.-.-.=.",
"<.,.-.=.=.=.=.=.-.,.-.* * ,.r.,.* =.=.=.& : S ~.^.^.(.'._._.)._._._._._._._.'.#.@.'.;X`._.>X1X_.#.S & -.,.<.-.=.=.=.=.=.-.,.-.=.* -.q.<.* * =.=.",
",.=.-.=.=.=.-.* * -.-.,.,.q.r.,.* =.=.=.- X +.wXtXwX8X_.'._._._._.)._._._._.'.` / ^.;X)._.).).8XtX+.X * ,.=.-.-.=.=.-.=.* =.-.-.,.q.r.<.=.=.=.=.",
"-.* ,.<.=.-.<.-.=.* -.<.q.r.q.,.=.<.,.=.>._ #.2X6X0X5X_.)._._._._._._._._._.'.#.@.@.#.(._.)._.>X2X'.@.Z & * -.<.-.-.,.,.=.* -.<.q.r.r.,.=.,.<.=.",
"* =.q.r.,.-.<.q.9.* -.<.<.<.<.=.-.r.q.-.6.[._.^.,X0X6X'.'._._._._._.)._._._._.;X;X` W &._._.).^.^.6XtX@.O 3 <.r.<.-.<.q.q.* =.<.,.<.<.=.=.q.r.,.",
"=.-.,.9.<.,.-.9.9.,.-.-.,.-.=.=.=.q.<.* V (.(.^._.2X2X<X,X_.'._._._._._._._._._.).../ `.2X<X1X1X1X8XwX+.o $ ,.9.<.,.-.<.q.,.-.-.,.,.-.* =.9.q.,.",
",.,.=.=.,.-.=.-.<.r.,.=.,.,.=.* =.,.& h W &.~.#.&.(.,XqX7X).'._._._._._._._._._._.` W 3XeXqXqXqX9XwXqXX.o = -.=.,.-.=.-.<.r.<.=.-.,.=.* =.,.<.,.",
"q.,.-.=.-.=.=.-.9.y.,.& * -.9.<.-.=.- h T +.#.$.^.&.`.2X2X1X,X_._._._.)._._._._._.^.^.1X5X2X2X5X5X5X5X[ o * -.=.-.=.=.-.<.y.<.* * -.9.<.,.=.=.=.",
"<.-.<.<.=.* =.-.<.q.,.=.=.<.r.<.-.* : + P ) [ $.~.#.^.^.,X0X8X_.)._.).;X)._.).;X_.8XqX:X^.)._._._.`.`.R   * <.<.-.* * -.,.q.<.=.=.,.r.9.-.=.=.=.",
"-.=.9.q.-.* =.=.-.,.,.,.q.q.<.-.=.; w P T ) X.$.&.$.&.^._.3X4X<X>X_._._._._.).)._.8X0X:X^.).^.^.^.(.^.#.+.N > q.-.* =.=.-.,.,.,.9.q.<.-.=.=.,.q.",
"-.,.9.9.=.* * =.=.=.-.<.q.<.-.* $ d U ] ` ) [ ^.$.$.$.$.(.(.,X0X8X_.).).)._._.)._.8X0X:X).^.^.~.^.#.%.3XrX+.  >.-.* =.=.=.=.-.<.q.9.-.* * * ,.r.",
",.q.9.-.=.=.=.=.=.=.-.<.,.-.* : w P R ] ` ) [ @.#.$.$.$.$.^.'.4X5X>X>X>X:X_._.:X<X4X4X`.^.$.X.@.@.#.^.<X8X^.] Z & * =.=.=.=.-.,.<.-.=.=.=.* -.q.",
"<.r.9.-.=.,.9.-.=.9.,.=.,.,.$ y A ) ) ` ) ` ` ) [ $.$.$.&.$.^.'.:X9XqXqX9X_.).9XqX>X).(.$...) ) ) &._._.'.4XtX} t 4 w.-.=.9.<.=.,.-.=.,.q.-.=.,.",
"9.r.<.=.=.,.q.,.,.r.,.* =.& w T ) +.' ` ` ) ) ! [ $.$.$.$.$.$.(.).4X3X5X3X>X>X3X4X_.^.#.+.[ ) / ) #.;X).^.1X0X'.` B >.-.-.r.<.* =.-.=.<.q.-.-.,.",
"9.r.,.=.,.-.=.9.r.,.-.* 1 d ^ ^.#.$...) ) _ ` ! ..$.(.$.$.$.$.&.$.$.$.~.^.9XqX).$.&.$.[ ) ) ` / ! #.`._._._.^.2XwX%.  7 q.<.-.* * =.=.=.=.-.<.,.",
",.<.=.=.<.-.=.9.r.,.=.=.r P ..'.^.^.@.' [ ) ` ` [ #.#.#.$.$.$.$.$.^.$.@.#.1X2X#.+.&.&.[ ) ) ` ] ..&.`._._._.^.1X0X(.T r e.-.* =.<.<.=.* =.,.,.-.",
"=.,.=.-.,.-.=.9.q.,.# u  .$.^._._._.(.$.X.) ) ` ` ` ..$.&.$.$.@.#._.(.` ! ` ' ) ' (._.[ W W ! #.`._.)._._._._._._.).;X] u u u # r.q.=.* =.,.-.=.",
",.q.<.-.=.=.=.,.,.-.B P ..).)._.'._.(.$.@.' ` ) ) ) ' $.&.$.&.'.'._.)...[ ` ) ) ` &._.+.[ [ ..^.`._._._._._._._.;X;X>XX.Y Y T V <.-.& * =.=.=.=.",
",.r.9.-.=.* =.-.% t _ $.^._._._._._.(.$.$.$.+.) ) ) ..$.$.#.'.7X8X_.'._.(.` ) ) ` (.`.'.(.(.(.)._._._._._._.).2XqX3X)./.^.(._.} u u u 0 =.* =.=.",
",.r.9.-.=.=.=.* M Y +.^.(._._._._._.(.$.$.^.+.` ) ) ' @.$.#.'.7X7X:X`._._...` ] [ (.`.:X:X[.;X_._._._._._.).&.,X6X1X_.;X:X[.[.#.P P Y N * * -.,.",
"=.-.<.,.=.=.0 u /.9X>X)._._._.)._._._._.(.$.+.` ) ` ) _ [ #.(._.;X9X8X_.(.).(.).(.)._.5XqX9X9X>X^._.)._._.@.) ] ` `.0X0X0X4X(.(.^.`.8X{.u a -.9.",
"=.=.-.,.=.,.M o {.wX<X)._._._._._._._._.'.&.@.` ' ) ` ` [ #.$.'.{.8X6X;X`.[.`.`.`.`.`.5X8X8X8X>X_._.'.`.:X#.] ) T &.6X7X7X2X`.`.[.<XwX<Xj d ,.q.",
"<.=.* * -.9.w h _.wX,X)._.)._._._._._._._._.(.$.+.` ` ) [ $.^._._._.;X6X8X8X8X8X8X9X8X>X_.^.&.4XqX,X(.2X9X1X_.` h T [ [ ` (.9X8X8X9X0X<Xj u -.<.",
"<.* -.,.,.<.B j ;XwX,X)._._._._._._._._._._.(.&.@.` ` ) [ #.$._._.).;X6XqX8X8X8X8X8X7X;X^.$.#.1X9X>X).4XqX1X;X` + Y ! ` W $.8X6X6X6X9X:Xj u ,.,.",
"=.=.9.r.q M E ! :XwX,X)._._._._._._._._._._._._.(.#.+.) ' ` [ $.^.$.^.`.`.`.`.;X`.(.(.O.] ] ] ' ..:X9X9X9X1X`.` o Y ` ` ` ` ..........` j c q.,.",
"-.q.q.<.p h W ` <X0X<X(._._._._._.)._._.)._._._.(.&.+.` ) ! ' #.#.$.$.).(.(.).(.(.$.%.) W ~ ! W / `.0X9X8X1X:X[ j Y ` ` ` ! ) W ) / / Q j c <.-.",
",.q.<.=.m h Q ` <XwX<X'.)._._.)._._._._._._.'.&.$.(...D P ` ) [ [ $.&.^.^.^.^...' [ ' P j W ` ` ) [ [ ^.;X4X9X>X(.' l Y ] ` ` ` ` ) ` W j c -.=.",
"<.,.=.* i l W ) :X9X,X_.`._._.`._._._._._.'.(.$.$.&.[ j l ` ) ! ) #.#.#.#.#.#.` ) ) ! P D W ' ` ) ) W #.^.2X9X2X:X[ o P ) / ( ` ` ) ` W j k =.=.",
",.=.9 p | ^.[ ) [ @.<X8X7X7X7X8X<X(.).).'.(.+.[ / Y F O h F l F P P Y ' [ [ [ ` ) F D ..(.^.^...! ) ) [ [ ^.>X:X;X..h D D K #XU.) ` ` W j g =.=.",
"-.=.d h $.,X..` / R [.0X9X8X9X8X3X_._.`.(.$.+.` Y d j F F j j j j O h ! ) ) ! ` ) l j &.<X;X`.+.) ] ) ) W @.).).`...h h @ J =XK./ ) ` W l f ,.=.",
"* =.g j $.`...` ` ` ..#.@.#.+.#.`.9X7X8X:X` ) ` W o W 1X:X#.#.#.#.$.#.P l P D D P +.&.(.).).).1X5X$.W ) ` ] ....+.Q + j + H v.v.Z.B.` W j g q.,.",
"=.=.g h $.{.[ ` ) ) ! W W R R R (.wX0XqX[.W ) [ Q . ' qX9X:X`.:X[.:X).P h j j h l &.,X_._._._.7XwX^./ ) ` ) ! ) ) Y D D + x h.k.H.Z.! ! l g q.<.",
"<.,.d j W.&X| ~ ` ) ` ` ) ) ` ) ..^.$.~.X.! ~ ~ T X W >X2X6X2X).)._.).#.@.+.@.@.X.(._.)._.1X8X1X>X@.W ` ) ` ~ ) ) ..$.~ + x x.x.D.n.` ! h f <.,.",
"9.<.f h K.=XM.) ) ) ` ) ` ` ` ` ! W R Q / ` ` ] R o T ^.:X0X6X`._._._.:X:X:X:X:X>X;X_.)._.6XqX>X^.X.) ` ` ) ) ` W #.1XX.j H G x.S.n.) ! l f =.=.",
"9.-.f j Z..XK.E.{ ! ` ` ` ` ` ` ) ` ~ ~ Q.Y.J.T.N.O Y ..&.>X2X5X5X_.).).).).).)._._._.2X6X_.#.).`.@./ ~ ~ Q.R.M./ @.;X..h D x G D.n.` W j f * =.",
"-.=.g j b.S.+X*X!.! ` ) ` ` ` ) ` ` ! ! B.*X*X-XJ.O D W [ ^.[.0X9X_.).)._._.)._._.)._.8XqXX.Y $.;XX./ ~ ! E.-XB.! +.:X..j O . H S.F. .W j f -.q.",
"=.,.z j v.H..X.XQ.~ ' ` ) ` ` ` ~ ~ Q.P.OX*XR.B.{ @ I ) ] ..$.>X1X3X5X5X3X5X5X5X3X5X3X1X>XX.W ^.;XX.! Q.P.K.XXB.W @.:X..j j O H c.k.:.: 3 ; ,.r.",
",.r.g k v.D.S.F.K ~ ` ` ` ) ` ) ! ! B.=X*X*XI.~ Q O P ) ] Q ] ^.`.9X0X0XqXqXqX9XqXqXqX>X^...) ^.;XX.Q P.=XoXG.M.W +.:X..h j h x j.2.=.* =.* ,.q.",
"<.r.=.& a.c.A.G.K P Y P W ` ) ` Q.E.J..XJ.B.{ ] Q + F ` ` W ..).{.<X1X>X1X>X>X1X>X1X>X:X)...! ..@.!.P.K.XXn.M.o.$.&.:X..O M 5 * -.,.=.<.q.=.-.<.",
"9.r.<.-.2.h.A.H.L + h h T [ ~ ~ B.=X@XA.N.~ ~ ..Q O P ] ] / [ _.`._.).).)._.)._.).).).;X`...Q ~ ! E.=X.XA.M.! #.>X;X,X..j r <.* =.-.=.<.q.-.=.,.",
"q.r.;.:.a.h.k.v.8.= ; $ M Y K B.F.XXD.v.J U Y Y I h F P R ) ] @.#.)._._.)._._.)._._.).$.+.#.$.' ! P.*X.XS.J I Q ' ` [ V 4.-.-.* * =.=.=.=.,.,.,.",
",.<.h.x.x.x.j.j.9.,.-.-.8 + m.H.H.S.V.j.C h + D j l j h P ` ` ) ' ).`._._.).*._._._.).' ! ).1XO.) E.*XoXH.J + + + + h 8 r.,.-.-.,.,.=.* * ,.,.-.",
"-.,.-.=.=.=.=.<.q.,.,.<.<.6 b V.v.c.x.j., =.5.5 $ 1 ; & q U R ) [ )._._._.}.}._._.`._.[ ! ' [ T Y N.@XA.V., & $ & ; 1 1.q.<.-.<.r.q.=.* =.,.-.=.",
"-.q.<.-.=.=.=.,.<.,.9.r.9.,.=.j.j.j.h.j.2.,.q.i.9.=.-.q.,.f F ) ..;X;X;X>X%X%X].*.`.`.+.! P O + k m.H.c.j.<.9.-.=.=.=.,.<.,.<.r.9.,.=.=.=.-.=.=.",
",.r.q.,.=.=.=.=.-.-.<.9.-.-.:.j.d.=.:.;.=.=.9.q.9.=.-.t.<.& 0 U R [ [ ' | K.oXW.|.%.' ! E m $ 3 > k. Xf.:.i.w.,.=.=.=.-.-.-.<.q.,.-.-.=.=.=.=.-.",
",.r.9.-.=.=.=.=.* =.-.,.=.-.2.j.2.* -.,.=.=.,.<.-.=.,.r.9.-.* g j h h O k Z..X%X$Xv @ + f * =.=.,.f.H.-.-.r.q.-.=.* =.=.:.* =.,.=.-.,.-.* =.=.,.",
"=.,.<.,.=.=.-.=.=.=.<.9.-.=.,.;.=.=.,.q.,.=.=.,.,.=.=.<.<.,.=.1 2 2 2 < e C.D.+XXX2.3 q 4 <.,.=.=.<.3.-.=.,.<.,.=.=.-.=.=.=.,.9.-.=.,.,.=.=.,.9.",
"=.* -.,.=.-.,.-.=.<.q.q.-.=.,.<.,.=.,.r.9.,.=.=.,.-.=.* -.,.=.-.<.=.=.,.w.z.D.+XXX,.,.=.,.r.9.,.=.=.,.-.=.* -.,.=.-.,.-.=.,.q.r.-.=.,.<.,.=.-.q.",
"<.=.* * -.9.q.-.=.q.r.q.-.=.,.q.r.,.-.<.q.9.=.* =.q.9.=.* =.-.9.r.-.=.q.r.l.C.oXH.q.r.,.-.<.q.q.=.& =.9.9.=.* * -.<.r.-.-.q.r.r.-.=.,.q.q.,.-.,.",
"<.* -.,.,.q.i.-.-.r.i.r.-.* -.<.q.9.<.,.q.q.=.=.,.q.<.* =.,.,.q.t.-.=.q.r.s.g.A.C.9.q.q.,.,.r.e.=.=.,.q.9.* -.,.,.9.r.,.=.q.r.r.-.* -.<.q.q.<.,.",
"=.=.9.r.,.<.q.-.-.q.r.q.-.* =.=.<.r.9.-.q.9.=.<.r.<.=.=.<.r.,.<.t.-.=.9.w.s.j.A.C.-.,.r.9.,.q.q.=.,.r.<.=.=.<.r.,.<.r.-.=.q.r.r.,.=.* =.,.r.q.,.",
"-.q.q.<.-.,.<.=.,.r.q.<.,.-.* * -.9.<.=.<.,.* <.r.-.-.9.q.<.-.,.<.-.=.g.j.j.j.S.C.=.-.<.<.=.<.,.* ,.r.,.=.9.q.<.-.,.<.=.-.t.q.<.,.-.* * -.<.<.-.",
",.r.<.-.=.-.-.=.,.q.<.-.,.-.-.=.=.-.-.* -.-.-.9.q.=.-.r.<.=.=.-.-.=.-.f.s.a.g.l.l.-.=.-.-.=.-.-.-.<.q.-.-.r.9.=.=.=.-.=.-.q.<.-.-.,.-.=.=.-.-.=.",
",.,.-.=.=.=.=.=.-.,.-.* * ,.q.,.* =.=.=.* -.q.9.,.,.,.<.-.=.=.=.=.=.=.<.-.* * -.q.<.* =.=.=.* -.q.q.,.,.<.<.-.=.=.=.=.=.-.,.,.=.* -.q.<.* =.=.=.",
",.-.=.=.=.-.=.=.* -.=.-.-.w.p.<.* =.=.* =.,.q.,.=.<.,.-.=.=.=.=.-.=.* =.-.-.,.0.y.<.=.=.=.=.=.,.9.<.=.,.,.-.=.=.=.=.-.* * -.-.-.-.9.u.<.=.=.=.=.",
"-.=.,.,.=.-.,.-.=.=.-.<.q.r.q.-.=.<.,.=.-.,.,.-.=.,.-.=.,.<.=.-.,.,.=.* -.<.q.q.r.,.=.,.,.=.-.,.,.-.=.,.-.* ,.<.-.-.,.,.=.* =.,.q.r.r.-.=.,.,.=."
};
